<svg version='1.1' xmlns='http://www.w3.org/2000/svg' xmlns:xlink='http://www.w3.org/1999/xlink' x='0px' y='0px' width="614.20" height="398.20" viewBox='0 0 614.20 398.20' xml:space='preserve' > <style>g.day { animation: wave 1s ease 0s infinite normal forwards; transform: translate(0px, 0px); } @keyframes wave { 50% { transform: translate(0px, -20px); } 100% { transform: translate(0px, 0px); } } g[data-week="0"][data-day="0"] { animation-delay: 0.500s; } g[data-week="0"][data-day="1"] { animation-delay: 0.550s; } g[data-week="0"][data-day="2"] { animation-delay: 0.600s; } g[data-week="0"][data-day="3"] { animation-delay: 0.650s; } g[data-week="0"][data-day="4"] { animation-delay: 0.700s; } g[data-week="0"][data-day="5"] { animation-delay: 0.750s; } g[data-week="0"][data-day="6"] { animation-delay: 0.800s; } g[data-week="1"][data-day="0"] { animation-delay: 0.450s; } g[data-week="1"][data-day="1"] { animation-delay: 0.500s; } g[data-week="1"][data-day="2"] { animation-delay: 0.550s; } g[data-week="1"][data-day="3"] { animation-delay: 0.600s; } g[data-week="1"][data-day="4"] { animation-delay: 0.650s; } g[data-week="1"][data-day="5"] { animation-delay: 0.700s; } g[data-week="1"][data-day="6"] { animation-delay: 0.750s; } g[data-week="2"][data-day="0"] { animation-delay: 0.400s; } g[data-week="2"][data-day="1"] { animation-delay: 0.450s; } g[data-week="2"][data-day="2"] { animation-delay: 0.500s; } g[data-week="2"][data-day="3"] { animation-delay: 0.550s; } g[data-week="2"][data-day="4"] { animation-delay: 0.600s; } g[data-week="2"][data-day="5"] { animation-delay: 0.650s; } g[data-week="2"][data-day="6"] { animation-delay: 0.700s; } g[data-week="3"][data-day="0"] { animation-delay: 0.350s; } g[data-week="3"][data-day="1"] { animation-delay: 0.400s; } g[data-week="3"][data-day="2"] { animation-delay: 0.450s; } g[data-week="3"][data-day="3"] { animation-delay: 0.500s; } g[data-week="3"][data-day="4"] { animation-delay: 0.550s; } g[data-week="3"][data-day="5"] { animation-delay: 0.600s; } g[data-week="3"][data-day="6"] { animation-delay: 0.650s; } g[data-week="4"][data-day="0"] { animation-delay: 0.300s; } g[data-week="4"][data-day="1"] { animation-delay: 0.350s; } g[data-week="4"][data-day="2"] { animation-delay: 0.400s; } g[data-week="4"][data-day="3"] { animation-delay: 0.450s; } g[data-week="4"][data-day="4"] { animation-delay: 0.500s; } g[data-week="4"][data-day="5"] { animation-delay: 0.550s; } g[data-week="4"][data-day="6"] { animation-delay: 0.600s; } g[data-week="5"][data-day="0"] { animation-delay: 0.250s; } g[data-week="5"][data-day="1"] { animation-delay: 0.300s; } g[data-week="5"][data-day="2"] { animation-delay: 0.350s; } g[data-week="5"][data-day="3"] { animation-delay: 0.400s; } g[data-week="5"][data-day="4"] { animation-delay: 0.450s; } g[data-week="5"][data-day="5"] { animation-delay: 0.500s; } g[data-week="5"][data-day="6"] { animation-delay: 0.550s; } g[data-week="6"][data-day="0"] { animation-delay: 0.200s; } g[data-week="6"][data-day="1"] { animation-delay: 0.250s; } g[data-week="6"][data-day="2"] { animation-delay: 0.300s; } g[data-week="6"][data-day="3"] { animation-delay: 0.350s; } g[data-week="6"][data-day="4"] { animation-delay: 0.400s; } g[data-week="6"][data-day="5"] { animation-delay: 0.450s; } g[data-week="6"][data-day="6"] { animation-delay: 0.500s; } g[data-week="7"][data-day="0"] { animation-delay: 0.150s; } g[data-week="7"][data-day="1"] { animation-delay: 0.200s; } g[data-week="7"][data-day="2"] { animation-delay: 0.250s; } g[data-week="7"][data-day="3"] { animation-delay: 0.300s; } g[data-week="7"][data-day="4"] { animation-delay: 0.350s; } g[data-week="7"][data-day="5"] { animation-delay: 0.400s; } g[data-week="7"][data-day="6"] { animation-delay: 0.450s; } g[data-week="8"][data-day="0"] { animation-delay: 0.100s; } g[data-week="8"][data-day="1"] { animation-delay: 0.150s; } g[data-week="8"][data-day="2"] { animation-delay: 0.200s; } g[data-week="8"][data-day="3"] { animation-delay: 0.250s; } g[data-week="8"][data-day="4"] { animation-delay: 0.300s; } g[data-week="8"][data-day="5"] { animation-delay: 0.350s; } g[data-week="8"][data-day="6"] { animation-delay: 0.400s; } g[data-week="9"][data-day="0"] { animation-delay: 0.050s; } g[data-week="9"][data-day="1"] { animation-delay: 0.100s; } g[data-week="9"][data-day="2"] { animation-delay: 0.150s; } g[data-week="9"][data-day="3"] { animation-delay: 0.200s; } g[data-week="9"][data-day="4"] { animation-delay: 0.250s; } g[data-week="9"][data-day="5"] { animation-delay: 0.300s; } g[data-week="9"][data-day="6"] { animation-delay: 0.350s; } g[data-week="10"][data-day="0"] { animation-delay: 0.000s; } g[data-week="10"][data-day="1"] { animation-delay: 0.050s; } g[data-week="10"][data-day="2"] { animation-delay: 0.100s; } g[data-week="10"][data-day="3"] { animation-delay: 0.150s; } g[data-week="10"][data-day="4"] { animation-delay: 0.200s; } g[data-week="10"][data-day="5"] { animation-delay: 0.250s; } g[data-week="10"][data-day="6"] { animation-delay: 0.300s; } g[data-week="11"][data-day="0"] { animation-delay: 0.050s; } g[data-week="11"][data-day="1"] { animation-delay: 0.100s; } g[data-week="11"][data-day="2"] { animation-delay: 0.150s; } g[data-week="11"][data-day="3"] { animation-delay: 0.200s; } g[data-week="11"][data-day="4"] { animation-delay: 0.250s; } g[data-week="11"][data-day="5"] { animation-delay: 0.300s; } g[data-week="11"][data-day="6"] { animation-delay: 0.350s; } g[data-week="12"][data-day="0"] { animation-delay: 0.100s; } g[data-week="12"][data-day="1"] { animation-delay: 0.150s; } g[data-week="12"][data-day="2"] { animation-delay: 0.200s; } g[data-week="12"][data-day="3"] { animation-delay: 0.250s; } g[data-week="12"][data-day="4"] { animation-delay: 0.300s; } g[data-week="12"][data-day="5"] { animation-delay: 0.350s; } g[data-week="12"][data-day="6"] { animation-delay: 0.400s; } g[data-week="13"][data-day="0"] { animation-delay: 0.150s; } g[data-week="13"][data-day="1"] { animation-delay: 0.200s; } g[data-week="13"][data-day="2"] { animation-delay: 0.250s; } g[data-week="13"][data-day="3"] { animation-delay: 0.300s; } g[data-week="13"][data-day="4"] { animation-delay: 0.350s; } g[data-week="13"][data-day="5"] { animation-delay: 0.400s; } g[data-week="13"][data-day="6"] { animation-delay: 0.450s; } g[data-week="14"][data-day="0"] { animation-delay: 0.200s; } g[data-week="14"][data-day="1"] { animation-delay: 0.250s; } g[data-week="14"][data-day="2"] { animation-delay: 0.300s; } g[data-week="14"][data-day="3"] { animation-delay: 0.350s; } g[data-week="14"][data-day="4"] { animation-delay: 0.400s; } g[data-week="14"][data-day="5"] { animation-delay: 0.450s; } g[data-week="14"][data-day="6"] { animation-delay: 0.500s; } g[data-week="15"][data-day="0"] { animation-delay: 0.250s; } g[data-week="15"][data-day="1"] { animation-delay: 0.300s; } g[data-week="15"][data-day="2"] { animation-delay: 0.350s; } g[data-week="15"][data-day="3"] { animation-delay: 0.400s; } g[data-week="15"][data-day="4"] { animation-delay: 0.450s; } g[data-week="15"][data-day="5"] { animation-delay: 0.500s; } g[data-week="15"][data-day="6"] { animation-delay: 0.550s; } g[data-week="16"][data-day="0"] { animation-delay: 0.300s; } g[data-week="16"][data-day="1"] { animation-delay: 0.350s; } g[data-week="16"][data-day="2"] { animation-delay: 0.400s; } g[data-week="16"][data-day="3"] { animation-delay: 0.450s; } g[data-week="16"][data-day="4"] { animation-delay: 0.500s; } g[data-week="16"][data-day="5"] { animation-delay: 0.550s; } g[data-week="16"][data-day="6"] { animation-delay: 0.600s; } g[data-week="17"][data-day="0"] { animation-delay: 0.350s; } g[data-week="17"][data-day="1"] { animation-delay: 0.400s; } g[data-week="17"][data-day="2"] { animation-delay: 0.450s; } g[data-week="17"][data-day="3"] { animation-delay: 0.500s; } g[data-week="17"][data-day="4"] { animation-delay: 0.550s; } g[data-week="17"][data-day="5"] { animation-delay: 0.600s; } g[data-week="17"][data-day="6"] { animation-delay: 0.650s; } g[data-week="18"][data-day="0"] { animation-delay: 0.400s; } g[data-week="18"][data-day="1"] { animation-delay: 0.450s; } g[data-week="18"][data-day="2"] { animation-delay: 0.500s; } g[data-week="18"][data-day="3"] { animation-delay: 0.550s; } g[data-week="18"][data-day="4"] { animation-delay: 0.600s; } g[data-week="18"][data-day="5"] { animation-delay: 0.650s; } g[data-week="18"][data-day="6"] { animation-delay: 0.700s; } g[data-week="19"][data-day="0"] { animation-delay: 0.450s; } g[data-week="19"][data-day="1"] { animation-delay: 0.500s; } g[data-week="19"][data-day="2"] { animation-delay: 0.550s; } g[data-week="19"][data-day="3"] { animation-delay: 0.600s; } g[data-week="19"][data-day="4"] { animation-delay: 0.650s; } g[data-week="19"][data-day="5"] { animation-delay: 0.700s; } g[data-week="19"][data-day="6"] { animation-delay: 0.750s; } g[data-week="20"][data-day="0"] { animation-delay: 0.500s; } g[data-week="20"][data-day="1"] { animation-delay: 0.550s; } g[data-week="20"][data-day="2"] { animation-delay: 0.600s; } g[data-week="20"][data-day="3"] { animation-delay: 0.650s; } g[data-week="20"][data-day="4"] { animation-delay: 0.700s; } g[data-week="20"][data-day="5"] { animation-delay: 0.750s; } g[data-week="20"][data-day="6"] { animation-delay: 0.800s; } g[data-week="21"][data-day="0"] { animation-delay: 0.550s; } g[data-week="21"][data-day="1"] { animation-delay: 0.600s; } g[data-week="21"][data-day="2"] { animation-delay: 0.650s; } g[data-week="21"][data-day="3"] { animation-delay: 0.700s; } g[data-week="21"][data-day="4"] { animation-delay: 0.750s; } g[data-week="21"][data-day="5"] { animation-delay: 0.800s; } g[data-week="21"][data-day="6"] { animation-delay: 0.850s; } g[data-week="22"][data-day="0"] { animation-delay: 0.600s; } g[data-week="22"][data-day="1"] { animation-delay: 0.650s; } g[data-week="22"][data-day="2"] { animation-delay: 0.700s; } g[data-week="22"][data-day="3"] { animation-delay: 0.750s; } g[data-week="22"][data-day="4"] { animation-delay: 0.800s; } g[data-week="22"][data-day="5"] { animation-delay: 0.850s; } g[data-week="22"][data-day="6"] { animation-delay: 0.900s; } g[data-week="23"][data-day="0"] { animation-delay: 0.650s; } g[data-week="23"][data-day="1"] { animation-delay: 0.700s; } g[data-week="23"][data-day="2"] { animation-delay: 0.750s; } g[data-week="23"][data-day="3"] { animation-delay: 0.800s; } g[data-week="23"][data-day="4"] { animation-delay: 0.850s; } g[data-week="23"][data-day="5"] { animation-delay: 0.900s; } g[data-week="23"][data-day="6"] { animation-delay: 0.950s; } g[data-week="24"][data-day="0"] { animation-delay: 0.700s; } g[data-week="24"][data-day="1"] { animation-delay: 0.750s; } g[data-week="24"][data-day="2"] { animation-delay: 0.800s; } g[data-week="24"][data-day="3"] { animation-delay: 0.850s; } g[data-week="24"][data-day="4"] { animation-delay: 0.900s; } g[data-week="24"][data-day="5"] { animation-delay: 0.950s; } g[data-week="24"][data-day="6"] { animation-delay: 1.000s; } g[data-week="25"][data-day="0"] { animation-delay: 0.750s; } g[data-week="25"][data-day="1"] { animation-delay: 0.800s; } g[data-week="25"][data-day="2"] { animation-delay: 0.850s; } g[data-week="25"][data-day="3"] { animation-delay: 0.900s; } g[data-week="25"][data-day="4"] { animation-delay: 0.950s; } g[data-week="25"][data-day="5"] { animation-delay: 1.000s; } g[data-week="25"][data-day="6"] { animation-delay: 1.050s; } g[data-week="26"][data-day="0"] { animation-delay: 0.800s; } g[data-week="26"][data-day="1"] { animation-delay: 0.850s; } g[data-week="26"][data-day="2"] { animation-delay: 0.900s; } g[data-week="26"][data-day="3"] { animation-delay: 0.950s; } g[data-week="26"][data-day="4"] { animation-delay: 1.000s; } g[data-week="26"][data-day="5"] { animation-delay: 1.050s; } g[data-week="26"][data-day="6"] { animation-delay: 1.100s; } g[data-week="27"][data-day="0"] { animation-delay: 0.850s; } g[data-week="27"][data-day="1"] { animation-delay: 0.900s; } g[data-week="27"][data-day="2"] { animation-delay: 0.950s; } g[data-week="27"][data-day="3"] { animation-delay: 1.000s; } g[data-week="27"][data-day="4"] { animation-delay: 1.050s; } g[data-week="27"][data-day="5"] { animation-delay: 1.100s; } g[data-week="27"][data-day="6"] { animation-delay: 1.150s; } g[data-week="28"][data-day="0"] { animation-delay: 0.900s; } g[data-week="28"][data-day="1"] { animation-delay: 0.950s; } g[data-week="28"][data-day="2"] { animation-delay: 1.000s; } g[data-week="28"][data-day="3"] { animation-delay: 1.050s; } g[data-week="28"][data-day="4"] { animation-delay: 1.100s; } g[data-week="28"][data-day="5"] { animation-delay: 1.150s; } g[data-week="28"][data-day="6"] { animation-delay: 1.200s; } g[data-week="29"][data-day="0"] { animation-delay: 0.950s; } g[data-week="29"][data-day="1"] { animation-delay: 1.000s; } g[data-week="29"][data-day="2"] { animation-delay: 1.050s; } g[data-week="29"][data-day="3"] { animation-delay: 1.100s; } g[data-week="29"][data-day="4"] { animation-delay: 1.150s; } g[data-week="29"][data-day="5"] { animation-delay: 1.200s; } g[data-week="29"][data-day="6"] { animation-delay: 1.250s; } </style> <defs> </defs> <g transform="translate(116.20000000000002,80)"> <g data-week="0" data-day="0" class="day"><path d="M0.00,12.80 -16.00,4.80 -16.00,8.00 0.00,16.00 z" fill="#b0b1b4"></path><path d="M0.00,12.80 16.00,4.80 16.00,8.00 0.00,16.00 z" fill="#c7c9cc"></path><path d="M0.00,12.80 -16.00,4.80 0.00,-3.20 16.00,4.80 z" fill="#ebedf0"></path></g> <g data-week="0" data-day="1" class="day"><path d="M-16.60,21.40 -32.60,13.40 -32.60,16.60 -16.60,24.60 z" fill="#b0b1b4"></path><path d="M-16.60,21.40 -0.60,13.40 -0.60,16.60 -16.60,24.60 z" fill="#c7c9cc"></path><path d="M-16.60,21.40 -32.60,13.40 -16.60,5.40 -0.60,13.40 z" fill="#ebedf0"></path></g> <g data-week="0" data-day="2" class="day"><path d="M-33.20,30.00 -49.20,22.00 -49.20,25.20 -33.20,33.20 z" fill="#b0b1b4"></path><path d="M-33.20,30.00 -17.20,22.00 -17.20,25.20 -33.20,33.20 z" fill="#c7c9cc"></path><path d="M-33.20,30.00 -49.20,22.00 -33.20,14.00 -17.20,22.00 z" fill="#ebedf0"></path></g> <g data-week="0" data-day="3" class="day"><path d="M-49.80,25.80 -65.80,17.80 -65.80,33.80 -49.80,41.80 z" fill="#94ab68"></path><path d="M-49.80,25.80 -33.80,17.80 -33.80,33.80 -49.80,41.80 z" fill="#a8c176"></path><path d="M-49.80,25.80 -65.80,17.80 -49.80,9.80 -33.80,17.80 z" fill="#c6e48b"></path></g> <g data-week="0" data-day="4" class="day"><path d="M-66.40,34.40 -82.40,26.40 -82.40,42.40 -66.40,50.40 z" fill="#94ab68"></path><path d="M-66.40,34.40 -50.40,26.40 -50.40,42.40 -66.40,50.40 z" fill="#a8c176"></path><path d="M-66.40,34.40 -82.40,26.40 -66.40,18.40 -50.40,26.40 z" fill="#c6e48b"></path></g> <g data-week="0" data-day="5" class="day"><path d="M-83.00,43.00 -99.00,35.00 -99.00,51.00 -83.00,59.00 z" fill="#94ab68"></path><path d="M-83.00,43.00 -67.00,35.00 -67.00,51.00 -83.00,59.00 z" fill="#a8c176"></path><path d="M-83.00,43.00 -99.00,35.00 -83.00,27.00 -67.00,35.00 z" fill="#c6e48b"></path></g> <g data-week="0" data-day="6" class="day"><path d="M-99.60,51.60 -115.60,43.60 -115.60,59.60 -99.60,67.60 z" fill="#94ab68"></path><path d="M-99.60,51.60 -83.60,43.60 -83.60,59.60 -99.60,67.60 z" fill="#a8c176"></path><path d="M-99.60,51.60 -115.60,43.60 -99.60,35.60 -83.60,43.60 z" fill="#c6e48b"></path></g> <g data-week="1" data-day="0" class="day"><path d="M16.60,8.60 0.60,0.60 0.60,16.60 16.60,24.60 z" fill="#94ab68"></path><path d="M16.60,8.60 32.60,0.60 32.60,16.60 16.60,24.60 z" fill="#a8c176"></path><path d="M16.60,8.60 0.60,0.60 16.60,-7.40 32.60,0.60 z" fill="#c6e48b"></path></g> <g data-week="1" data-day="1" class="day"><path d="M0.00,17.20 -16.00,9.20 -16.00,25.20 0.00,33.20 z" fill="#94ab68"></path><path d="M0.00,17.20 16.00,9.20 16.00,25.20 0.00,33.20 z" fill="#a8c176"></path><path d="M0.00,17.20 -16.00,9.20 0.00,1.20 16.00,9.20 z" fill="#c6e48b"></path></g> <g data-week="1" data-day="2" class="day"><path d="M-16.60,25.80 -32.60,17.80 -32.60,33.80 -16.60,41.80 z" fill="#94ab68"></path><path d="M-16.60,25.80 -0.60,17.80 -0.60,33.80 -16.60,41.80 z" fill="#a8c176"></path><path d="M-16.60,25.80 -32.60,17.80 -16.60,9.80 -0.60,17.80 z" fill="#c6e48b"></path></g> <g data-week="1" data-day="3" class="day"><path d="M-33.20,34.40 -49.20,26.40 -49.20,42.40 -33.20,50.40 z" fill="#94ab68"></path><path d="M-33.20,34.40 -17.20,26.40 -17.20,42.40 -33.20,50.40 z" fill="#a8c176"></path><path d="M-33.20,34.40 -49.20,26.40 -33.20,18.40 -17.20,26.40 z" fill="#c6e48b"></path></g> <g data-week="1" data-day="4" class="day"><path d="M-49.80,43.00 -65.80,35.00 -65.80,51.00 -49.80,59.00 z" fill="#94ab68"></path><path d="M-49.80,43.00 -33.80,35.00 -33.80,51.00 -49.80,59.00 z" fill="#a8c176"></path><path d="M-49.80,43.00 -65.80,35.00 -49.80,27.00 -33.80,35.00 z" fill="#c6e48b"></path></g> <g data-week="1" data-day="5" class="day"><path d="M-66.40,51.60 -82.40,43.60 -82.40,59.60 -66.40,67.60 z" fill="#94ab68"></path><path d="M-66.40,51.60 -50.40,43.60 -50.40,59.60 -66.40,67.60 z" fill="#a8c176"></path><path d="M-66.40,51.60 -82.40,43.60 -66.40,35.60 -50.40,43.60 z" fill="#c6e48b"></path></g> <g data-week="1" data-day="6" class="day"><path d="M-83.00,73.00 -99.00,65.00 -99.00,68.20 -83.00,76.20 z" fill="#b0b1b4"></path><path d="M-83.00,73.00 -67.00,65.00 -67.00,68.20 -83.00,76.20 z" fill="#c7c9cc"></path><path d="M-83.00,73.00 -99.00,65.00 -83.00,57.00 -67.00,65.00 z" fill="#ebedf0"></path></g> <g data-week="2" data-day="0" class="day"><path d="M33.20,17.20 17.20,9.20 17.20,25.20 33.20,33.20 z" fill="#5c9653"></path><path d="M33.20,17.20 49.20,9.20 49.20,25.20 33.20,33.20 z" fill="#68aa5e"></path><path d="M33.20,17.20 17.20,9.20 33.20,1.20 49.20,9.20 z" fill="#7bc96f"></path></g> <g data-week="2" data-day="1" class="day"><path d="M16.60,25.80 0.60,17.80 0.60,33.80 16.60,41.80 z" fill="#94ab68"></path><path d="M16.60,25.80 32.60,17.80 32.60,33.80 16.60,41.80 z" fill="#a8c176"></path><path d="M16.60,25.80 0.60,17.80 16.60,9.80 32.60,17.80 z" fill="#c6e48b"></path></g> <g data-week="2" data-day="2" class="day"><path d="M0.00,47.20 -16.00,39.20 -16.00,42.40 0.00,50.40 z" fill="#b0b1b4"></path><path d="M0.00,47.20 16.00,39.20 16.00,42.40 0.00,50.40 z" fill="#c7c9cc"></path><path d="M0.00,47.20 -16.00,39.20 0.00,31.20 16.00,39.20 z" fill="#ebedf0"></path></g> <g data-week="2" data-day="3" class="day"><path d="M-16.60,43.00 -32.60,35.00 -32.60,51.00 -16.60,59.00 z" fill="#94ab68"></path><path d="M-16.60,43.00 -0.60,35.00 -0.60,51.00 -16.60,59.00 z" fill="#a8c176"></path><path d="M-16.60,43.00 -32.60,35.00 -16.60,27.00 -0.60,35.00 z" fill="#c6e48b"></path></g> <g data-week="2" data-day="4" class="day"><path d="M-33.20,51.60 -49.20,43.60 -49.20,59.60 -33.20,67.60 z" fill="#94ab68"></path><path d="M-33.20,51.60 -17.20,43.60 -17.20,59.60 -33.20,67.60 z" fill="#a8c176"></path><path d="M-33.20,51.60 -49.20,43.60 -33.20,35.60 -17.20,43.60 z" fill="#c6e48b"></path></g> <g data-week="2" data-day="5" class="day"><path d="M-49.80,60.20 -65.80,52.20 -65.80,68.20 -49.80,76.20 z" fill="#94ab68"></path><path d="M-49.80,60.20 -33.80,52.20 -33.80,68.20 -49.80,76.20 z" fill="#a8c176"></path><path d="M-49.80,60.20 -65.80,52.20 -49.80,44.20 -33.80,52.20 z" fill="#c6e48b"></path></g> <g data-week="2" data-day="6" class="day"><path d="M-66.40,68.80 -82.40,60.80 -82.40,76.80 -66.40,84.80 z" fill="#94ab68"></path><path d="M-66.40,68.80 -50.40,60.80 -50.40,76.80 -66.40,84.80 z" fill="#a8c176"></path><path d="M-66.40,68.80 -82.40,60.80 -66.40,52.80 -50.40,60.80 z" fill="#c6e48b"></path></g> <g data-week="3" data-day="0" class="day"><path d="M49.80,25.80 33.80,17.80 33.80,33.80 49.80,41.80 z" fill="#94ab68"></path><path d="M49.80,25.80 65.80,17.80 65.80,33.80 49.80,41.80 z" fill="#a8c176"></path><path d="M49.80,25.80 33.80,17.80 49.80,9.80 65.80,17.80 z" fill="#c6e48b"></path></g> <g data-week="3" data-day="1" class="day"><path d="M33.20,34.40 17.20,26.40 17.20,42.40 33.20,50.40 z" fill="#94ab68"></path><path d="M33.20,34.40 49.20,26.40 49.20,42.40 33.20,50.40 z" fill="#a8c176"></path><path d="M33.20,34.40 17.20,26.40 33.20,18.40 49.20,26.40 z" fill="#c6e48b"></path></g> <g data-week="3" data-day="2" class="day"><path d="M16.60,55.80 0.60,47.80 0.60,51.00 16.60,59.00 z" fill="#b0b1b4"></path><path d="M16.60,55.80 32.60,47.80 32.60,51.00 16.60,59.00 z" fill="#c7c9cc"></path><path d="M16.60,55.80 0.60,47.80 16.60,39.80 32.60,47.80 z" fill="#ebedf0"></path></g> <g data-week="3" data-day="3" class="day"><path d="M0.00,64.40 -16.00,56.40 -16.00,59.60 0.00,67.60 z" fill="#b0b1b4"></path><path d="M0.00,64.40 16.00,56.40 16.00,59.60 0.00,67.60 z" fill="#c7c9cc"></path><path d="M0.00,64.40 -16.00,56.40 0.00,48.40 16.00,56.40 z" fill="#ebedf0"></path></g> <g data-week="3" data-day="4" class="day"><path d="M-16.60,60.20 -32.60,52.20 -32.60,68.20 -16.60,76.20 z" fill="#94ab68"></path><path d="M-16.60,60.20 -0.60,52.20 -0.60,68.20 -16.60,76.20 z" fill="#a8c176"></path><path d="M-16.60,60.20 -32.60,52.20 -16.60,44.20 -0.60,52.20 z" fill="#c6e48b"></path></g> <g data-week="3" data-day="5" class="day"><path d="M-33.20,81.60 -49.20,73.60 -49.20,76.80 -33.20,84.80 z" fill="#b0b1b4"></path><path d="M-33.20,81.60 -17.20,73.60 -17.20,76.80 -33.20,84.80 z" fill="#c7c9cc"></path><path d="M-33.20,81.60 -49.20,73.60 -33.20,65.60 -17.20,73.60 z" fill="#ebedf0"></path></g> <g data-week="3" data-day="6" class="day"><path d="M-49.80,90.20 -65.80,82.20 -65.80,85.40 -49.80,93.40 z" fill="#b0b1b4"></path><path d="M-49.80,90.20 -33.80,82.20 -33.80,85.40 -49.80,93.40 z" fill="#c7c9cc"></path><path d="M-49.80,90.20 -65.80,82.20 -49.80,74.20 -33.80,82.20 z" fill="#ebedf0"></path></g> <g data-week="4" data-day="0" class="day"><path d="M66.40,47.20 50.40,39.20 50.40,42.40 66.40,50.40 z" fill="#b0b1b4"></path><path d="M66.40,47.20 82.40,39.20 82.40,42.40 66.40,50.40 z" fill="#c7c9cc"></path><path d="M66.40,47.20 50.40,39.20 66.40,31.20 82.40,39.20 z" fill="#ebedf0"></path></g> <g data-week="4" data-day="1" class="day"><path d="M49.80,43.00 33.80,35.00 33.80,51.00 49.80,59.00 z" fill="#94ab68"></path><path d="M49.80,43.00 65.80,35.00 65.80,51.00 49.80,59.00 z" fill="#a8c176"></path><path d="M49.80,43.00 33.80,35.00 49.80,27.00 65.80,35.00 z" fill="#c6e48b"></path></g> <g data-week="4" data-day="2" class="day"><path d="M33.20,51.60 17.20,43.60 17.20,59.60 33.20,67.60 z" fill="#94ab68"></path><path d="M33.20,51.60 49.20,43.60 49.20,59.60 33.20,67.60 z" fill="#a8c176"></path><path d="M33.20,51.60 17.20,43.60 33.20,35.60 49.20,43.60 z" fill="#c6e48b"></path></g> <g data-week="4" data-day="3" class="day"><path d="M16.60,60.20 0.60,52.20 0.60,68.20 16.60,76.20 z" fill="#5c9653"></path><path d="M16.60,60.20 32.60,52.20 32.60,68.20 16.60,76.20 z" fill="#68aa5e"></path><path d="M16.60,60.20 0.60,52.20 16.60,44.20 32.60,52.20 z" fill="#7bc96f"></path></g> <g data-week="4" data-day="4" class="day"><path d="M0.00,68.80 -16.00,60.80 -16.00,76.80 0.00,84.80 z" fill="#94ab68"></path><path d="M0.00,68.80 16.00,60.80 16.00,76.80 0.00,84.80 z" fill="#a8c176"></path><path d="M0.00,68.80 -16.00,60.80 0.00,52.80 16.00,60.80 z" fill="#c6e48b"></path></g> <g data-week="4" data-day="5" class="day"><path d="M-16.60,77.40 -32.60,69.40 -32.60,85.40 -16.60,93.40 z" fill="#94ab68"></path><path d="M-16.60,77.40 -0.60,69.40 -0.60,85.40 -16.60,93.40 z" fill="#a8c176"></path><path d="M-16.60,77.40 -32.60,69.40 -16.60,61.40 -0.60,69.40 z" fill="#c6e48b"></path></g> <g data-week="4" data-day="6" class="day"><path d="M-33.20,86.00 -49.20,78.00 -49.20,94.00 -33.20,102.00 z" fill="#5c9653"></path><path d="M-33.20,86.00 -17.20,78.00 -17.20,94.00 -33.20,102.00 z" fill="#68aa5e"></path><path d="M-33.20,86.00 -49.20,78.00 -33.20,70.00 -17.20,78.00 z" fill="#7bc96f"></path></g> <g data-week="5" data-day="0" class="day"><path d="M83.00,43.00 67.00,35.00 67.00,51.00 83.00,59.00 z" fill="#5c9653"></path><path d="M83.00,43.00 99.00,35.00 99.00,51.00 83.00,59.00 z" fill="#68aa5e"></path><path d="M83.00,43.00 67.00,35.00 83.00,27.00 99.00,35.00 z" fill="#7bc96f"></path></g> <g data-week="5" data-day="1" class="day"><path d="M66.40,51.60 50.40,43.60 50.40,59.60 66.40,67.60 z" fill="#5c9653"></path><path d="M66.40,51.60 82.40,43.60 82.40,59.60 66.40,67.60 z" fill="#68aa5e"></path><path d="M66.40,51.60 50.40,43.60 66.40,35.60 82.40,43.60 z" fill="#7bc96f"></path></g> <g data-week="5" data-day="2" class="day"><path d="M49.80,73.00 33.80,65.00 33.80,68.20 49.80,76.20 z" fill="#b0b1b4"></path><path d="M49.80,73.00 65.80,65.00 65.80,68.20 49.80,76.20 z" fill="#c7c9cc"></path><path d="M49.80,73.00 33.80,65.00 49.80,57.00 65.80,65.00 z" fill="#ebedf0"></path></g> <g data-week="5" data-day="3" class="day"><path d="M33.20,68.80 17.20,60.80 17.20,76.80 33.20,84.80 z" fill="#94ab68"></path><path d="M33.20,68.80 49.20,60.80 49.20,76.80 33.20,84.80 z" fill="#a8c176"></path><path d="M33.20,68.80 17.20,60.80 33.20,52.80 49.20,60.80 z" fill="#c6e48b"></path></g> <g data-week="5" data-day="4" class="day"><path d="M16.60,77.40 0.60,69.40 0.60,85.40 16.60,93.40 z" fill="#1a732c"></path><path d="M16.60,77.40 32.60,69.40 32.60,85.40 16.60,93.40 z" fill="#1d8232"></path><path d="M16.60,77.40 0.60,69.40 16.60,61.40 32.60,69.40 z" fill="#239a3b"></path></g> <g data-week="5" data-day="5" class="day"><path d="M0.00,86.00 -16.00,78.00 -16.00,94.00 0.00,102.00 z" fill="#1a732c"></path><path d="M0.00,86.00 16.00,78.00 16.00,94.00 0.00,102.00 z" fill="#1d8232"></path><path d="M0.00,86.00 -16.00,78.00 0.00,70.00 16.00,78.00 z" fill="#239a3b"></path></g> <g data-week="5" data-day="6" class="day"><path d="M-16.60,107.40 -32.60,99.40 -32.60,102.60 -16.60,110.60 z" fill="#b0b1b4"></path><path d="M-16.60,107.40 -0.60,99.40 -0.60,102.60 -16.60,110.60 z" fill="#c7c9cc"></path><path d="M-16.60,107.40 -32.60,99.40 -16.60,91.40 -0.60,99.40 z" fill="#ebedf0"></path></g> <g data-week="6" data-day="0" class="day"><path d="M99.60,51.60 83.60,43.60 83.60,59.60 99.60,67.60 z" fill="#94ab68"></path><path d="M99.60,51.60 115.60,43.60 115.60,59.60 99.60,67.60 z" fill="#a8c176"></path><path d="M99.60,51.60 83.60,43.60 99.60,35.60 115.60,43.60 z" fill="#c6e48b"></path></g> <g data-week="6" data-day="1" class="day"><path d="M83.00,60.20 67.00,52.20 67.00,68.20 83.00,76.20 z" fill="#5c9653"></path><path d="M83.00,60.20 99.00,52.20 99.00,68.20 83.00,76.20 z" fill="#68aa5e"></path><path d="M83.00,60.20 67.00,52.20 83.00,44.20 99.00,52.20 z" fill="#7bc96f"></path></g> <g data-week="6" data-day="2" class="day"><path d="M66.40,68.80 50.40,60.80 50.40,76.80 66.40,84.80 z" fill="#94ab68"></path><path d="M66.40,68.80 82.40,60.80 82.40,76.80 66.40,84.80 z" fill="#a8c176"></path><path d="M66.40,68.80 50.40,60.80 66.40,52.80 82.40,60.80 z" fill="#c6e48b"></path></g> <g data-week="6" data-day="3" class="day"><path d="M49.80,90.20 33.80,82.20 33.80,85.40 49.80,93.40 z" fill="#b0b1b4"></path><path d="M49.80,90.20 65.80,82.20 65.80,85.40 49.80,93.40 z" fill="#c7c9cc"></path><path d="M49.80,90.20 33.80,82.20 49.80,74.20 65.80,82.20 z" fill="#ebedf0"></path></g> <g data-week="6" data-day="4" class="day"><path d="M33.20,98.80 17.20,90.80 17.20,94.00 33.20,102.00 z" fill="#b0b1b4"></path><path d="M33.20,98.80 49.20,90.80 49.20,94.00 33.20,102.00 z" fill="#c7c9cc"></path><path d="M33.20,98.80 17.20,90.80 33.20,82.80 49.20,90.80 z" fill="#ebedf0"></path></g> <g data-week="6" data-day="5" class="day"><path d="M16.60,107.40 0.60,99.40 0.60,102.60 16.60,110.60 z" fill="#b0b1b4"></path><path d="M16.60,107.40 32.60,99.40 32.60,102.60 16.60,110.60 z" fill="#c7c9cc"></path><path d="M16.60,107.40 0.60,99.40 16.60,91.40 32.60,99.40 z" fill="#ebedf0"></path></g> <g data-week="6" data-day="6" class="day"><path d="M0.00,116.00 -16.00,108.00 -16.00,111.20 0.00,119.20 z" fill="#b0b1b4"></path><path d="M0.00,116.00 16.00,108.00 16.00,111.20 0.00,119.20 z" fill="#c7c9cc"></path><path d="M0.00,116.00 -16.00,108.00 0.00,100.00 16.00,108.00 z" fill="#ebedf0"></path></g> <g data-week="7" data-day="0" class="day"><path d="M116.20,60.20 100.20,52.20 100.20,68.20 116.20,76.20 z" fill="#94ab68"></path><path d="M116.20,60.20 132.20,52.20 132.20,68.20 116.20,76.20 z" fill="#a8c176"></path><path d="M116.20,60.20 100.20,52.20 116.20,44.20 132.20,52.20 z" fill="#c6e48b"></path></g> <g data-week="7" data-day="1" class="day"><path d="M99.60,68.80 83.60,60.80 83.60,76.80 99.60,84.80 z" fill="#94ab68"></path><path d="M99.60,68.80 115.60,60.80 115.60,76.80 99.60,84.80 z" fill="#a8c176"></path><path d="M99.60,68.80 83.60,60.80 99.60,52.80 115.60,60.80 z" fill="#c6e48b"></path></g> <g data-week="7" data-day="2" class="day"><path d="M83.00,90.20 67.00,82.20 67.00,85.40 83.00,93.40 z" fill="#b0b1b4"></path><path d="M83.00,90.20 99.00,82.20 99.00,85.40 83.00,93.40 z" fill="#c7c9cc"></path><path d="M83.00,90.20 67.00,82.20 83.00,74.20 99.00,82.20 z" fill="#ebedf0"></path></g> <g data-week="7" data-day="3" class="day"><path d="M66.40,86.00 50.40,78.00 50.40,94.00 66.40,102.00 z" fill="#94ab68"></path><path d="M66.40,86.00 82.40,78.00 82.40,94.00 66.40,102.00 z" fill="#a8c176"></path><path d="M66.40,86.00 50.40,78.00 66.40,70.00 82.40,78.00 z" fill="#c6e48b"></path></g> <g data-week="7" data-day="4" class="day"><path d="M49.80,94.60 33.80,86.60 33.80,102.60 49.80,110.60 z" fill="#94ab68"></path><path d="M49.80,94.60 65.80,86.60 65.80,102.60 49.80,110.60 z" fill="#a8c176"></path><path d="M49.80,94.60 33.80,86.60 49.80,78.60 65.80,86.60 z" fill="#c6e48b"></path></g> <g data-week="7" data-day="5" class="day"><path d="M33.20,103.20 17.20,95.20 17.20,111.20 33.20,119.20 z" fill="#94ab68"></path><path d="M33.20,103.20 49.20,95.20 49.20,111.20 33.20,119.20 z" fill="#a8c176"></path><path d="M33.20,103.20 17.20,95.20 33.20,87.20 49.20,95.20 z" fill="#c6e48b"></path></g> <g data-week="7" data-day="6" class="day"><path d="M16.60,124.60 0.60,116.60 0.60,119.80 16.60,127.80 z" fill="#b0b1b4"></path><path d="M16.60,124.60 32.60,116.60 32.60,119.80 16.60,127.80 z" fill="#c7c9cc"></path><path d="M16.60,124.60 0.60,116.60 16.60,108.60 32.60,116.60 z" fill="#ebedf0"></path></g> <g data-week="8" data-day="0" class="day"><path d="M132.80,68.80 116.80,60.80 116.80,76.80 132.80,84.80 z" fill="#5c9653"></path><path d="M132.80,68.80 148.80,60.80 148.80,76.80 132.80,84.80 z" fill="#68aa5e"></path><path d="M132.80,68.80 116.80,60.80 132.80,52.80 148.80,60.80 z" fill="#7bc96f"></path></g> <g data-week="8" data-day="1" class="day"><path d="M116.20,77.40 100.20,69.40 100.20,85.40 116.20,93.40 z" fill="#94ab68"></path><path d="M116.20,77.40 132.20,69.40 132.20,85.40 116.20,93.40 z" fill="#a8c176"></path><path d="M116.20,77.40 100.20,69.40 116.20,61.40 132.20,69.40 z" fill="#c6e48b"></path></g> <g data-week="8" data-day="2" class="day"><path d="M99.60,86.00 83.60,78.00 83.60,94.00 99.60,102.00 z" fill="#94ab68"></path><path d="M99.60,86.00 115.60,78.00 115.60,94.00 99.60,102.00 z" fill="#a8c176"></path><path d="M99.60,86.00 83.60,78.00 99.60,70.00 115.60,78.00 z" fill="#c6e48b"></path></g> <g data-week="8" data-day="3" class="day"><path d="M83.00,94.60 67.00,86.60 67.00,102.60 83.00,110.60 z" fill="#94ab68"></path><path d="M83.00,94.60 99.00,86.60 99.00,102.60 83.00,110.60 z" fill="#a8c176"></path><path d="M83.00,94.60 67.00,86.60 83.00,78.60 99.00,86.60 z" fill="#c6e48b"></path></g> <g data-week="8" data-day="4" class="day"><path d="M66.40,103.20 50.40,95.20 50.40,111.20 66.40,119.20 z" fill="#5c9653"></path><path d="M66.40,103.20 82.40,95.20 82.40,111.20 66.40,119.20 z" fill="#68aa5e"></path><path d="M66.40,103.20 50.40,95.20 66.40,87.20 82.40,95.20 z" fill="#7bc96f"></path></g> <g data-week="8" data-day="5" class="day"><path d="M49.80,111.80 33.80,103.80 33.80,119.80 49.80,127.80 z" fill="#94ab68"></path><path d="M49.80,111.80 65.80,103.80 65.80,119.80 49.80,127.80 z" fill="#a8c176"></path><path d="M49.80,111.80 33.80,103.80 49.80,95.80 65.80,103.80 z" fill="#c6e48b"></path></g> <g data-week="8" data-day="6" class="day"><path d="M33.20,120.40 17.20,112.40 17.20,128.40 33.20,136.40 z" fill="#94ab68"></path><path d="M33.20,120.40 49.20,112.40 49.20,128.40 33.20,136.40 z" fill="#a8c176"></path><path d="M33.20,120.40 17.20,112.40 33.20,104.40 49.20,112.40 z" fill="#c6e48b"></path></g> <g data-week="9" data-day="0" class="day"><path d="M149.40,77.40 133.40,69.40 133.40,85.40 149.40,93.40 z" fill="#94ab68"></path><path d="M149.40,77.40 165.40,69.40 165.40,85.40 149.40,93.40 z" fill="#a8c176"></path><path d="M149.40,77.40 133.40,69.40 149.40,61.40 165.40,69.40 z" fill="#c6e48b"></path></g> <g data-week="9" data-day="1" class="day"><path d="M132.80,98.80 116.80,90.80 116.80,94.00 132.80,102.00 z" fill="#b0b1b4"></path><path d="M132.80,98.80 148.80,90.80 148.80,94.00 132.80,102.00 z" fill="#c7c9cc"></path><path d="M132.80,98.80 116.80,90.80 132.80,82.80 148.80,90.80 z" fill="#ebedf0"></path></g> <g data-week="9" data-day="2" class="day"><path d="M116.20,107.40 100.20,99.40 100.20,102.60 116.20,110.60 z" fill="#b0b1b4"></path><path d="M116.20,107.40 132.20,99.40 132.20,102.60 116.20,110.60 z" fill="#c7c9cc"></path><path d="M116.20,107.40 100.20,99.40 116.20,91.40 132.20,99.40 z" fill="#ebedf0"></path></g> <g data-week="9" data-day="3" class="day"><path d="M99.60,116.00 83.60,108.00 83.60,111.20 99.60,119.20 z" fill="#b0b1b4"></path><path d="M99.60,116.00 115.60,108.00 115.60,111.20 99.60,119.20 z" fill="#c7c9cc"></path><path d="M99.60,116.00 83.60,108.00 99.60,100.00 115.60,108.00 z" fill="#ebedf0"></path></g> <g data-week="9" data-day="4" class="day"><path d="M83.00,124.60 67.00,116.60 67.00,119.80 83.00,127.80 z" fill="#b0b1b4"></path><path d="M83.00,124.60 99.00,116.60 99.00,119.80 83.00,127.80 z" fill="#c7c9cc"></path><path d="M83.00,124.60 67.00,116.60 83.00,108.60 99.00,116.60 z" fill="#ebedf0"></path></g> <g data-week="9" data-day="5" class="day"><path d="M66.40,120.40 50.40,112.40 50.40,128.40 66.40,136.40 z" fill="#94ab68"></path><path d="M66.40,120.40 82.40,112.40 82.40,128.40 66.40,136.40 z" fill="#a8c176"></path><path d="M66.40,120.40 50.40,112.40 66.40,104.40 82.40,112.40 z" fill="#c6e48b"></path></g> <g data-week="9" data-day="6" class="day"><path d="M49.80,129.00 33.80,121.00 33.80,137.00 49.80,145.00 z" fill="#12481d"></path><path d="M49.80,129.00 65.80,121.00 65.80,137.00 49.80,145.00 z" fill="#155121"></path><path d="M49.80,129.00 33.80,121.00 49.80,113.00 65.80,121.00 z" fill="#196027"></path></g> <g data-week="10" data-day="0" class="day"><path d="M166.00,86.00 150.00,78.00 150.00,94.00 166.00,102.00 z" fill="#94ab68"></path><path d="M166.00,86.00 182.00,78.00 182.00,94.00 166.00,102.00 z" fill="#a8c176"></path><path d="M166.00,86.00 150.00,78.00 166.00,70.00 182.00,78.00 z" fill="#c6e48b"></path></g> <g data-week="10" data-day="1" class="day"><path d="M149.40,94.60 133.40,86.60 133.40,102.60 149.40,110.60 z" fill="#94ab68"></path><path d="M149.40,94.60 165.40,86.60 165.40,102.60 149.40,110.60 z" fill="#a8c176"></path><path d="M149.40,94.60 133.40,86.60 149.40,78.60 165.40,86.60 z" fill="#c6e48b"></path></g> <g data-week="10" data-day="2" class="day"><path d="M132.80,116.00 116.80,108.00 116.80,111.20 132.80,119.20 z" fill="#b0b1b4"></path><path d="M132.80,116.00 148.80,108.00 148.80,111.20 132.80,119.20 z" fill="#c7c9cc"></path><path d="M132.80,116.00 116.80,108.00 132.80,100.00 148.80,108.00 z" fill="#ebedf0"></path></g> <g data-week="10" data-day="3" class="day"><path d="M116.20,111.80 100.20,103.80 100.20,119.80 116.20,127.80 z" fill="#94ab68"></path><path d="M116.20,111.80 132.20,103.80 132.20,119.80 116.20,127.80 z" fill="#a8c176"></path><path d="M116.20,111.80 100.20,103.80 116.20,95.80 132.20,103.80 z" fill="#c6e48b"></path></g> <g data-week="10" data-day="4" class="day"><path d="M99.60,120.40 83.60,112.40 83.60,128.40 99.60,136.40 z" fill="#94ab68"></path><path d="M99.60,120.40 115.60,112.40 115.60,128.40 99.60,136.40 z" fill="#a8c176"></path><path d="M99.60,120.40 83.60,112.40 99.60,104.40 115.60,112.40 z" fill="#c6e48b"></path></g> <g data-week="10" data-day="5" class="day"><path d="M83.00,129.00 67.00,121.00 67.00,137.00 83.00,145.00 z" fill="#94ab68"></path><path d="M83.00,129.00 99.00,121.00 99.00,137.00 83.00,145.00 z" fill="#a8c176"></path><path d="M83.00,129.00 67.00,121.00 83.00,113.00 99.00,121.00 z" fill="#c6e48b"></path></g> <g data-week="10" data-day="6" class="day"><path d="M66.40,150.40 50.40,142.40 50.40,145.60 66.40,153.60 z" fill="#b0b1b4"></path><path d="M66.40,150.40 82.40,142.40 82.40,145.60 66.40,153.60 z" fill="#c7c9cc"></path><path d="M66.40,150.40 50.40,142.40 66.40,134.40 82.40,142.40 z" fill="#ebedf0"></path></g> <g data-week="11" data-day="0" class="day"><path d="M182.60,94.60 166.60,86.60 166.60,102.60 182.60,110.60 z" fill="#94ab68"></path><path d="M182.60,94.60 198.60,86.60 198.60,102.60 182.60,110.60 z" fill="#a8c176"></path><path d="M182.60,94.60 166.60,86.60 182.60,78.60 198.60,86.60 z" fill="#c6e48b"></path></g> <g data-week="11" data-day="1" class="day"><path d="M166.00,103.20 150.00,95.20 150.00,111.20 166.00,119.20 z" fill="#94ab68"></path><path d="M166.00,103.20 182.00,95.20 182.00,111.20 166.00,119.20 z" fill="#a8c176"></path><path d="M166.00,103.20 150.00,95.20 166.00,87.20 182.00,95.20 z" fill="#c6e48b"></path></g> <g data-week="11" data-day="2" class="day"><path d="M149.40,124.60 133.40,116.60 133.40,119.80 149.40,127.80 z" fill="#b0b1b4"></path><path d="M149.40,124.60 165.40,116.60 165.40,119.80 149.40,127.80 z" fill="#c7c9cc"></path><path d="M149.40,124.60 133.40,116.60 149.40,108.60 165.40,116.60 z" fill="#ebedf0"></path></g> <g data-week="11" data-day="3" class="day"><path d="M132.80,120.40 116.80,112.40 116.80,128.40 132.80,136.40 z" fill="#94ab68"></path><path d="M132.80,120.40 148.80,112.40 148.80,128.40 132.80,136.40 z" fill="#a8c176"></path><path d="M132.80,120.40 116.80,112.40 132.80,104.40 148.80,112.40 z" fill="#c6e48b"></path></g> <g data-week="11" data-day="4" class="day"><path d="M116.20,129.00 100.20,121.00 100.20,137.00 116.20,145.00 z" fill="#94ab68"></path><path d="M116.20,129.00 132.20,121.00 132.20,137.00 116.20,145.00 z" fill="#a8c176"></path><path d="M116.20,129.00 100.20,121.00 116.20,113.00 132.20,121.00 z" fill="#c6e48b"></path></g> <g data-week="11" data-day="5" class="day"><path d="M99.60,137.60 83.60,129.60 83.60,145.60 99.60,153.60 z" fill="#94ab68"></path><path d="M99.60,137.60 115.60,129.60 115.60,145.60 99.60,153.60 z" fill="#a8c176"></path><path d="M99.60,137.60 83.60,129.60 99.60,121.60 115.60,129.60 z" fill="#c6e48b"></path></g> <g data-week="11" data-day="6" class="day"><path d="M83.00,159.00 67.00,151.00 67.00,154.20 83.00,162.20 z" fill="#b0b1b4"></path><path d="M83.00,159.00 99.00,151.00 99.00,154.20 83.00,162.20 z" fill="#c7c9cc"></path><path d="M83.00,159.00 67.00,151.00 83.00,143.00 99.00,151.00 z" fill="#ebedf0"></path></g> <g data-week="12" data-day="0" class="day"><path d="M199.20,116.00 183.20,108.00 183.20,111.20 199.20,119.20 z" fill="#b0b1b4"></path><path d="M199.20,116.00 215.20,108.00 215.20,111.20 199.20,119.20 z" fill="#c7c9cc"></path><path d="M199.20,116.00 183.20,108.00 199.20,100.00 215.20,108.00 z" fill="#ebedf0"></path></g> <g data-week="12" data-day="1" class="day"><path d="M182.60,111.80 166.60,103.80 166.60,119.80 182.60,127.80 z" fill="#5c9653"></path><path d="M182.60,111.80 198.60,103.80 198.60,119.80 182.60,127.80 z" fill="#68aa5e"></path><path d="M182.60,111.80 166.60,103.80 182.60,95.80 198.60,103.80 z" fill="#7bc96f"></path></g> <g data-week="12" data-day="2" class="day"><path d="M166.00,120.40 150.00,112.40 150.00,128.40 166.00,136.40 z" fill="#12481d"></path><path d="M166.00,120.40 182.00,112.40 182.00,128.40 166.00,136.40 z" fill="#155121"></path><path d="M166.00,120.40 150.00,112.40 166.00,104.40 182.00,112.40 z" fill="#196027"></path></g> <g data-week="12" data-day="3" class="day"><path d="M149.40,129.00 133.40,121.00 133.40,137.00 149.40,145.00 z" fill="#12481d"></path><path d="M149.40,129.00 165.40,121.00 165.40,137.00 149.40,145.00 z" fill="#155121"></path><path d="M149.40,129.00 133.40,121.00 149.40,113.00 165.40,121.00 z" fill="#196027"></path></g> <g data-week="12" data-day="4" class="day"><path d="M132.80,137.60 116.80,129.60 116.80,145.60 132.80,153.60 z" fill="#5c9653"></path><path d="M132.80,137.60 148.80,129.60 148.80,145.60 132.80,153.60 z" fill="#68aa5e"></path><path d="M132.80,137.60 116.80,129.60 132.80,121.60 148.80,129.60 z" fill="#7bc96f"></path></g> <g data-week="12" data-day="5" class="day"><path d="M116.20,146.20 100.20,138.20 100.20,154.20 116.20,162.20 z" fill="#94ab68"></path><path d="M116.20,146.20 132.20,138.20 132.20,154.20 116.20,162.20 z" fill="#a8c176"></path><path d="M116.20,146.20 100.20,138.20 116.20,130.20 132.20,138.20 z" fill="#c6e48b"></path></g> <g data-week="12" data-day="6" class="day"><path d="M99.60,167.60 83.60,159.60 83.60,162.80 99.60,170.80 z" fill="#b0b1b4"></path><path d="M99.60,167.60 115.60,159.60 115.60,162.80 99.60,170.80 z" fill="#c7c9cc"></path><path d="M99.60,167.60 83.60,159.60 99.60,151.60 115.60,159.60 z" fill="#ebedf0"></path></g> <g data-week="13" data-day="0" class="day"><path d="M215.80,111.80 199.80,103.80 199.80,119.80 215.80,127.80 z" fill="#94ab68"></path><path d="M215.80,111.80 231.80,103.80 231.80,119.80 215.80,127.80 z" fill="#a8c176"></path><path d="M215.80,111.80 199.80,103.80 215.80,95.80 231.80,103.80 z" fill="#c6e48b"></path></g> <g data-week="13" data-day="1" class="day"><path d="M199.20,133.20 183.20,125.20 183.20,128.40 199.20,136.40 z" fill="#b0b1b4"></path><path d="M199.20,133.20 215.20,125.20 215.20,128.40 199.20,136.40 z" fill="#c7c9cc"></path><path d="M199.20,133.20 183.20,125.20 199.20,117.20 215.20,125.20 z" fill="#ebedf0"></path></g> <g data-week="13" data-day="2" class="day"><path d="M182.60,141.80 166.60,133.80 166.60,137.00 182.60,145.00 z" fill="#b0b1b4"></path><path d="M182.60,141.80 198.60,133.80 198.60,137.00 182.60,145.00 z" fill="#c7c9cc"></path><path d="M182.60,141.80 166.60,133.80 182.60,125.80 198.60,133.80 z" fill="#ebedf0"></path></g> <g data-week="13" data-day="3" class="day"><path d="M166.00,150.40 150.00,142.40 150.00,145.60 166.00,153.60 z" fill="#b0b1b4"></path><path d="M166.00,150.40 182.00,142.40 182.00,145.60 166.00,153.60 z" fill="#c7c9cc"></path><path d="M166.00,150.40 150.00,142.40 166.00,134.40 182.00,142.40 z" fill="#ebedf0"></path></g> <g data-week="13" data-day="4" class="day"><path d="M149.40,159.00 133.40,151.00 133.40,154.20 149.40,162.20 z" fill="#b0b1b4"></path><path d="M149.40,159.00 165.40,151.00 165.40,154.20 149.40,162.20 z" fill="#c7c9cc"></path><path d="M149.40,159.00 133.40,151.00 149.40,143.00 165.40,151.00 z" fill="#ebedf0"></path></g> <g data-week="13" data-day="5" class="day"><path d="M132.80,167.60 116.80,159.60 116.80,162.80 132.80,170.80 z" fill="#b0b1b4"></path><path d="M132.80,167.60 148.80,159.60 148.80,162.80 132.80,170.80 z" fill="#c7c9cc"></path><path d="M132.80,167.60 116.80,159.60 132.80,151.60 148.80,159.60 z" fill="#ebedf0"></path></g> <g data-week="13" data-day="6" class="day"><path d="M116.20,163.40 100.20,155.40 100.20,171.40 116.20,179.40 z" fill="#1a732c"></path><path d="M116.20,163.40 132.20,155.40 132.20,171.40 116.20,179.40 z" fill="#1d8232"></path><path d="M116.20,163.40 100.20,155.40 116.20,147.40 132.20,155.40 z" fill="#239a3b"></path></g> <g data-week="14" data-day="0" class="day"><path d="M232.40,133.20 216.40,125.20 216.40,128.40 232.40,136.40 z" fill="#b0b1b4"></path><path d="M232.40,133.20 248.40,125.20 248.40,128.40 232.40,136.40 z" fill="#c7c9cc"></path><path d="M232.40,133.20 216.40,125.20 232.40,117.20 248.40,125.20 z" fill="#ebedf0"></path></g> <g data-week="14" data-day="1" class="day"><path d="M215.80,129.00 199.80,121.00 199.80,137.00 215.80,145.00 z" fill="#1a732c"></path><path d="M215.80,129.00 231.80,121.00 231.80,137.00 215.80,145.00 z" fill="#1d8232"></path><path d="M215.80,129.00 199.80,121.00 215.80,113.00 231.80,121.00 z" fill="#239a3b"></path></g> <g data-week="14" data-day="2" class="day"><path d="M199.20,150.40 183.20,142.40 183.20,145.60 199.20,153.60 z" fill="#b0b1b4"></path><path d="M199.20,150.40 215.20,142.40 215.20,145.60 199.20,153.60 z" fill="#c7c9cc"></path><path d="M199.20,150.40 183.20,142.40 199.20,134.40 215.20,142.40 z" fill="#ebedf0"></path></g> <g data-week="14" data-day="3" class="day"><path d="M182.60,159.00 166.60,151.00 166.60,154.20 182.60,162.20 z" fill="#b0b1b4"></path><path d="M182.60,159.00 198.60,151.00 198.60,154.20 182.60,162.20 z" fill="#c7c9cc"></path><path d="M182.60,159.00 166.60,151.00 182.60,143.00 198.60,151.00 z" fill="#ebedf0"></path></g> <g data-week="14" data-day="4" class="day"><path d="M166.00,167.60 150.00,159.60 150.00,162.80 166.00,170.80 z" fill="#b0b1b4"></path><path d="M166.00,167.60 182.00,159.60 182.00,162.80 166.00,170.80 z" fill="#c7c9cc"></path><path d="M166.00,167.60 150.00,159.60 166.00,151.60 182.00,159.60 z" fill="#ebedf0"></path></g> <g data-week="14" data-day="5" class="day"><path d="M149.40,176.20 133.40,168.20 133.40,171.40 149.40,179.40 z" fill="#b0b1b4"></path><path d="M149.40,176.20 165.40,168.20 165.40,171.40 149.40,179.40 z" fill="#c7c9cc"></path><path d="M149.40,176.20 133.40,168.20 149.40,160.20 165.40,168.20 z" fill="#ebedf0"></path></g> <g data-week="14" data-day="6" class="day"><path d="M132.80,184.80 116.80,176.80 116.80,180.00 132.80,188.00 z" fill="#b0b1b4"></path><path d="M132.80,184.80 148.80,176.80 148.80,180.00 132.80,188.00 z" fill="#c7c9cc"></path><path d="M132.80,184.80 116.80,176.80 132.80,168.80 148.80,176.80 z" fill="#ebedf0"></path></g> <g data-week="15" data-day="0" class="day"><path d="M249.00,129.00 233.00,121.00 233.00,137.00 249.00,145.00 z" fill="#94ab68"></path><path d="M249.00,129.00 265.00,121.00 265.00,137.00 249.00,145.00 z" fill="#a8c176"></path><path d="M249.00,129.00 233.00,121.00 249.00,113.00 265.00,121.00 z" fill="#c6e48b"></path></g> <g data-week="15" data-day="1" class="day"><path d="M232.40,150.40 216.40,142.40 216.40,145.60 232.40,153.60 z" fill="#b0b1b4"></path><path d="M232.40,150.40 248.40,142.40 248.40,145.60 232.40,153.60 z" fill="#c7c9cc"></path><path d="M232.40,150.40 216.40,142.40 232.40,134.40 248.40,142.40 z" fill="#ebedf0"></path></g> <g data-week="15" data-day="2" class="day"><path d="M215.80,159.00 199.80,151.00 199.80,154.20 215.80,162.20 z" fill="#b0b1b4"></path><path d="M215.80,159.00 231.80,151.00 231.80,154.20 215.80,162.20 z" fill="#c7c9cc"></path><path d="M215.80,159.00 199.80,151.00 215.80,143.00 231.80,151.00 z" fill="#ebedf0"></path></g> <g data-week="15" data-day="3" class="day"><path d="M199.20,154.80 183.20,146.80 183.20,162.80 199.20,170.80 z" fill="#94ab68"></path><path d="M199.20,154.80 215.20,146.80 215.20,162.80 199.20,170.80 z" fill="#a8c176"></path><path d="M199.20,154.80 183.20,146.80 199.20,138.80 215.20,146.80 z" fill="#c6e48b"></path></g> <g data-week="15" data-day="4" class="day"><path d="M182.60,176.20 166.60,168.20 166.60,171.40 182.60,179.40 z" fill="#b0b1b4"></path><path d="M182.60,176.20 198.60,168.20 198.60,171.40 182.60,179.40 z" fill="#c7c9cc"></path><path d="M182.60,176.20 166.60,168.20 182.60,160.20 198.60,168.20 z" fill="#ebedf0"></path></g> <g data-week="15" data-day="5" class="day"><path d="M166.00,184.80 150.00,176.80 150.00,180.00 166.00,188.00 z" fill="#b0b1b4"></path><path d="M166.00,184.80 182.00,176.80 182.00,180.00 166.00,188.00 z" fill="#c7c9cc"></path><path d="M166.00,184.80 150.00,176.80 166.00,168.80 182.00,176.80 z" fill="#ebedf0"></path></g> <g data-week="15" data-day="6" class="day"><path d="M149.40,193.40 133.40,185.40 133.40,188.60 149.40,196.60 z" fill="#b0b1b4"></path><path d="M149.40,193.40 165.40,185.40 165.40,188.60 149.40,196.60 z" fill="#c7c9cc"></path><path d="M149.40,193.40 133.40,185.40 149.40,177.40 165.40,185.40 z" fill="#ebedf0"></path></g> <g data-week="16" data-day="0" class="day"><path d="M265.60,150.40 249.60,142.40 249.60,145.60 265.60,153.60 z" fill="#b0b1b4"></path><path d="M265.60,150.40 281.60,142.40 281.60,145.60 265.60,153.60 z" fill="#c7c9cc"></path><path d="M265.60,150.40 249.60,142.40 265.60,134.40 281.60,142.40 z" fill="#ebedf0"></path></g> <g data-week="16" data-day="1" class="day"><path d="M249.00,159.00 233.00,151.00 233.00,154.20 249.00,162.20 z" fill="#b0b1b4"></path><path d="M249.00,159.00 265.00,151.00 265.00,154.20 249.00,162.20 z" fill="#c7c9cc"></path><path d="M249.00,159.00 233.00,151.00 249.00,143.00 265.00,151.00 z" fill="#ebedf0"></path></g> <g data-week="16" data-day="2" class="day"><path d="M232.40,167.60 216.40,159.60 216.40,162.80 232.40,170.80 z" fill="#b0b1b4"></path><path d="M232.40,167.60 248.40,159.60 248.40,162.80 232.40,170.80 z" fill="#c7c9cc"></path><path d="M232.40,167.60 216.40,159.60 232.40,151.60 248.40,159.60 z" fill="#ebedf0"></path></g> <g data-week="16" data-day="3" class="day"><path d="M215.80,163.40 199.80,155.40 199.80,171.40 215.80,179.40 z" fill="#5c9653"></path><path d="M215.80,163.40 231.80,155.40 231.80,171.40 215.80,179.40 z" fill="#68aa5e"></path><path d="M215.80,163.40 199.80,155.40 215.80,147.40 231.80,155.40 z" fill="#7bc96f"></path></g> <g data-week="16" data-day="4" class="day"><path d="M199.20,184.80 183.20,176.80 183.20,180.00 199.20,188.00 z" fill="#b0b1b4"></path><path d="M199.20,184.80 215.20,176.80 215.20,180.00 199.20,188.00 z" fill="#c7c9cc"></path><path d="M199.20,184.80 183.20,176.80 199.20,168.80 215.20,176.80 z" fill="#ebedf0"></path></g> <g data-week="16" data-day="5" class="day"><path d="M182.60,180.60 166.60,172.60 166.60,188.60 182.60,196.60 z" fill="#94ab68"></path><path d="M182.60,180.60 198.60,172.60 198.60,188.60 182.60,196.60 z" fill="#a8c176"></path><path d="M182.60,180.60 166.60,172.60 182.60,164.60 198.60,172.60 z" fill="#c6e48b"></path></g> <g data-week="16" data-day="6" class="day"><path d="M166.00,202.00 150.00,194.00 150.00,197.20 166.00,205.20 z" fill="#b0b1b4"></path><path d="M166.00,202.00 182.00,194.00 182.00,197.20 166.00,205.20 z" fill="#c7c9cc"></path><path d="M166.00,202.00 150.00,194.00 166.00,186.00 182.00,194.00 z" fill="#ebedf0"></path></g> <g data-week="17" data-day="0" class="day"><path d="M282.20,159.00 266.20,151.00 266.20,154.20 282.20,162.20 z" fill="#b0b1b4"></path><path d="M282.20,159.00 298.20,151.00 298.20,154.20 282.20,162.20 z" fill="#c7c9cc"></path><path d="M282.20,159.00 266.20,151.00 282.20,143.00 298.20,151.00 z" fill="#ebedf0"></path></g> <g data-week="17" data-day="1" class="day"><path d="M265.60,154.80 249.60,146.80 249.60,162.80 265.60,170.80 z" fill="#94ab68"></path><path d="M265.60,154.80 281.60,146.80 281.60,162.80 265.60,170.80 z" fill="#a8c176"></path><path d="M265.60,154.80 249.60,146.80 265.60,138.80 281.60,146.80 z" fill="#c6e48b"></path></g> <g data-week="17" data-day="2" class="day"><path d="M249.00,176.20 233.00,168.20 233.00,171.40 249.00,179.40 z" fill="#b0b1b4"></path><path d="M249.00,176.20 265.00,168.20 265.00,171.40 249.00,179.40 z" fill="#c7c9cc"></path><path d="M249.00,176.20 233.00,168.20 249.00,160.20 265.00,168.20 z" fill="#ebedf0"></path></g> <g data-week="17" data-day="3" class="day"><path d="M232.40,184.80 216.40,176.80 216.40,180.00 232.40,188.00 z" fill="#b0b1b4"></path><path d="M232.40,184.80 248.40,176.80 248.40,180.00 232.40,188.00 z" fill="#c7c9cc"></path><path d="M232.40,184.80 216.40,176.80 232.40,168.80 248.40,176.80 z" fill="#ebedf0"></path></g> <g data-week="17" data-day="4" class="day"><path d="M215.80,193.40 199.80,185.40 199.80,188.60 215.80,196.60 z" fill="#b0b1b4"></path><path d="M215.80,193.40 231.80,185.40 231.80,188.60 215.80,196.60 z" fill="#c7c9cc"></path><path d="M215.80,193.40 199.80,185.40 215.80,177.40 231.80,185.40 z" fill="#ebedf0"></path></g> <g data-week="17" data-day="5" class="day"><path d="M199.20,202.00 183.20,194.00 183.20,197.20 199.20,205.20 z" fill="#b0b1b4"></path><path d="M199.20,202.00 215.20,194.00 215.20,197.20 199.20,205.20 z" fill="#c7c9cc"></path><path d="M199.20,202.00 183.20,194.00 199.20,186.00 215.20,194.00 z" fill="#ebedf0"></path></g> <g data-week="17" data-day="6" class="day"><path d="M182.60,210.60 166.60,202.60 166.60,205.80 182.60,213.80 z" fill="#b0b1b4"></path><path d="M182.60,210.60 198.60,202.60 198.60,205.80 182.60,213.80 z" fill="#c7c9cc"></path><path d="M182.60,210.60 166.60,202.60 182.60,194.60 198.60,202.60 z" fill="#ebedf0"></path></g> <g data-week="18" data-day="0" class="day"><path d="M298.80,167.60 282.80,159.60 282.80,162.80 298.80,170.80 z" fill="#b0b1b4"></path><path d="M298.80,167.60 314.80,159.60 314.80,162.80 298.80,170.80 z" fill="#c7c9cc"></path><path d="M298.80,167.60 282.80,159.60 298.80,151.60 314.80,159.60 z" fill="#ebedf0"></path></g> <g data-week="18" data-day="1" class="day"><path d="M282.20,176.20 266.20,168.20 266.20,171.40 282.20,179.40 z" fill="#b0b1b4"></path><path d="M282.20,176.20 298.20,168.20 298.20,171.40 282.20,179.40 z" fill="#c7c9cc"></path><path d="M282.20,176.20 266.20,168.20 282.20,160.20 298.20,168.20 z" fill="#ebedf0"></path></g> <g data-week="18" data-day="2" class="day"><path d="M265.60,184.80 249.60,176.80 249.60,180.00 265.60,188.00 z" fill="#b0b1b4"></path><path d="M265.60,184.80 281.60,176.80 281.60,180.00 265.60,188.00 z" fill="#c7c9cc"></path><path d="M265.60,184.80 249.60,176.80 265.60,168.80 281.60,176.80 z" fill="#ebedf0"></path></g> <g data-week="18" data-day="3" class="day"><path d="M249.00,193.40 233.00,185.40 233.00,188.60 249.00,196.60 z" fill="#b0b1b4"></path><path d="M249.00,193.40 265.00,185.40 265.00,188.60 249.00,196.60 z" fill="#c7c9cc"></path><path d="M249.00,193.40 233.00,185.40 249.00,177.40 265.00,185.40 z" fill="#ebedf0"></path></g> <g data-week="18" data-day="4" class="day"><path d="M232.40,202.00 216.40,194.00 216.40,197.20 232.40,205.20 z" fill="#b0b1b4"></path><path d="M232.40,202.00 248.40,194.00 248.40,197.20 232.40,205.20 z" fill="#c7c9cc"></path><path d="M232.40,202.00 216.40,194.00 232.40,186.00 248.40,194.00 z" fill="#ebedf0"></path></g> <g data-week="18" data-day="5" class="day"><path d="M215.80,210.60 199.80,202.60 199.80,205.80 215.80,213.80 z" fill="#b0b1b4"></path><path d="M215.80,210.60 231.80,202.60 231.80,205.80 215.80,213.80 z" fill="#c7c9cc"></path><path d="M215.80,210.60 199.80,202.60 215.80,194.60 231.80,202.60 z" fill="#ebedf0"></path></g> <g data-week="18" data-day="6" class="day"><path d="M199.20,219.20 183.20,211.20 183.20,214.40 199.20,222.40 z" fill="#b0b1b4"></path><path d="M199.20,219.20 215.20,211.20 215.20,214.40 199.20,222.40 z" fill="#c7c9cc"></path><path d="M199.20,219.20 183.20,211.20 199.20,203.20 215.20,211.20 z" fill="#ebedf0"></path></g> <g data-week="19" data-day="0" class="day"><path d="M315.40,176.20 299.40,168.20 299.40,171.40 315.40,179.40 z" fill="#b0b1b4"></path><path d="M315.40,176.20 331.40,168.20 331.40,171.40 315.40,179.40 z" fill="#c7c9cc"></path><path d="M315.40,176.20 299.40,168.20 315.40,160.20 331.40,168.20 z" fill="#ebedf0"></path></g> <g data-week="19" data-day="1" class="day"><path d="M298.80,184.80 282.80,176.80 282.80,180.00 298.80,188.00 z" fill="#b0b1b4"></path><path d="M298.80,184.80 314.80,176.80 314.80,180.00 298.80,188.00 z" fill="#c7c9cc"></path><path d="M298.80,184.80 282.80,176.80 298.80,168.80 314.80,176.80 z" fill="#ebedf0"></path></g> <g data-week="19" data-day="2" class="day"><path d="M282.20,193.40 266.20,185.40 266.20,188.60 282.20,196.60 z" fill="#b0b1b4"></path><path d="M282.20,193.40 298.20,185.40 298.20,188.60 282.20,196.60 z" fill="#c7c9cc"></path><path d="M282.20,193.40 266.20,185.40 282.20,177.40 298.20,185.40 z" fill="#ebedf0"></path></g> <g data-week="19" data-day="3" class="day"><path d="M265.60,202.00 249.60,194.00 249.60,197.20 265.60,205.20 z" fill="#b0b1b4"></path><path d="M265.60,202.00 281.60,194.00 281.60,197.20 265.60,205.20 z" fill="#c7c9cc"></path><path d="M265.60,202.00 249.60,194.00 265.60,186.00 281.60,194.00 z" fill="#ebedf0"></path></g> <g data-week="19" data-day="4" class="day"><path d="M249.00,210.60 233.00,202.60 233.00,205.80 249.00,213.80 z" fill="#b0b1b4"></path><path d="M249.00,210.60 265.00,202.60 265.00,205.80 249.00,213.80 z" fill="#c7c9cc"></path><path d="M249.00,210.60 233.00,202.60 249.00,194.60 265.00,202.60 z" fill="#ebedf0"></path></g> <g data-week="19" data-day="5" class="day"><path d="M232.40,206.40 216.40,198.40 216.40,214.40 232.40,222.40 z" fill="#94ab68"></path><path d="M232.40,206.40 248.40,198.40 248.40,214.40 232.40,222.40 z" fill="#a8c176"></path><path d="M232.40,206.40 216.40,198.40 232.40,190.40 248.40,198.40 z" fill="#c6e48b"></path></g> <g data-week="19" data-day="6" class="day"><path d="M215.80,227.80 199.80,219.80 199.80,223.00 215.80,231.00 z" fill="#b0b1b4"></path><path d="M215.80,227.80 231.80,219.80 231.80,223.00 215.80,231.00 z" fill="#c7c9cc"></path><path d="M215.80,227.80 199.80,219.80 215.80,211.80 231.80,219.80 z" fill="#ebedf0"></path></g> <g data-week="20" data-day="0" class="day"><path d="M332.00,184.80 316.00,176.80 316.00,180.00 332.00,188.00 z" fill="#b0b1b4"></path><path d="M332.00,184.80 348.00,176.80 348.00,180.00 332.00,188.00 z" fill="#c7c9cc"></path><path d="M332.00,184.80 316.00,176.80 332.00,168.80 348.00,176.80 z" fill="#ebedf0"></path></g> <g data-week="20" data-day="1" class="day"><path d="M315.40,180.60 299.40,172.60 299.40,188.60 315.40,196.60 z" fill="#94ab68"></path><path d="M315.40,180.60 331.40,172.60 331.40,188.60 315.40,196.60 z" fill="#a8c176"></path><path d="M315.40,180.60 299.40,172.60 315.40,164.60 331.40,172.60 z" fill="#c6e48b"></path></g> <g data-week="20" data-day="2" class="day"><path d="M298.80,189.20 282.80,181.20 282.80,197.20 298.80,205.20 z" fill="#1a732c"></path><path d="M298.80,189.20 314.80,181.20 314.80,197.20 298.80,205.20 z" fill="#1d8232"></path><path d="M298.80,189.20 282.80,181.20 298.80,173.20 314.80,181.20 z" fill="#239a3b"></path></g> <g data-week="20" data-day="3" class="day"><path d="M282.20,197.80 266.20,189.80 266.20,205.80 282.20,213.80 z" fill="#94ab68"></path><path d="M282.20,197.80 298.20,189.80 298.20,205.80 282.20,213.80 z" fill="#a8c176"></path><path d="M282.20,197.80 266.20,189.80 282.20,181.80 298.20,189.80 z" fill="#c6e48b"></path></g> <g data-week="20" data-day="4" class="day"><path d="M265.60,206.40 249.60,198.40 249.60,214.40 265.60,222.40 z" fill="#94ab68"></path><path d="M265.60,206.40 281.60,198.40 281.60,214.40 265.60,222.40 z" fill="#a8c176"></path><path d="M265.60,206.40 249.60,198.40 265.60,190.40 281.60,198.40 z" fill="#c6e48b"></path></g> <g data-week="20" data-day="5" class="day"><path d="M249.00,227.80 233.00,219.80 233.00,223.00 249.00,231.00 z" fill="#b0b1b4"></path><path d="M249.00,227.80 265.00,219.80 265.00,223.00 249.00,231.00 z" fill="#c7c9cc"></path><path d="M249.00,227.80 233.00,219.80 249.00,211.80 265.00,219.80 z" fill="#ebedf0"></path></g> <g data-week="20" data-day="6" class="day"><path d="M232.40,236.40 216.40,228.40 216.40,231.60 232.40,239.60 z" fill="#b0b1b4"></path><path d="M232.40,236.40 248.40,228.40 248.40,231.60 232.40,239.60 z" fill="#c7c9cc"></path><path d="M232.40,236.40 216.40,228.40 232.40,220.40 248.40,228.40 z" fill="#ebedf0"></path></g> <g data-week="21" data-day="0" class="day"><path d="M348.60,193.40 332.60,185.40 332.60,188.60 348.60,196.60 z" fill="#b0b1b4"></path><path d="M348.60,193.40 364.60,185.40 364.60,188.60 348.60,196.60 z" fill="#c7c9cc"></path><path d="M348.60,193.40 332.60,185.40 348.60,177.40 364.60,185.40 z" fill="#ebedf0"></path></g> <g data-week="21" data-day="1" class="day"><path d="M332.00,202.00 316.00,194.00 316.00,197.20 332.00,205.20 z" fill="#b0b1b4"></path><path d="M332.00,202.00 348.00,194.00 348.00,197.20 332.00,205.20 z" fill="#c7c9cc"></path><path d="M332.00,202.00 316.00,194.00 332.00,186.00 348.00,194.00 z" fill="#ebedf0"></path></g> <g data-week="21" data-day="2" class="day"><path d="M315.40,210.60 299.40,202.60 299.40,205.80 315.40,213.80 z" fill="#b0b1b4"></path><path d="M315.40,210.60 331.40,202.60 331.40,205.80 315.40,213.80 z" fill="#c7c9cc"></path><path d="M315.40,210.60 299.40,202.60 315.40,194.60 331.40,202.60 z" fill="#ebedf0"></path></g> <g data-week="21" data-day="3" class="day"><path d="M298.80,219.20 282.80,211.20 282.80,214.40 298.80,222.40 z" fill="#b0b1b4"></path><path d="M298.80,219.20 314.80,211.20 314.80,214.40 298.80,222.40 z" fill="#c7c9cc"></path><path d="M298.80,219.20 282.80,211.20 298.80,203.20 314.80,211.20 z" fill="#ebedf0"></path></g> <g data-week="21" data-day="4" class="day"><path d="M282.20,227.80 266.20,219.80 266.20,223.00 282.20,231.00 z" fill="#b0b1b4"></path><path d="M282.20,227.80 298.20,219.80 298.20,223.00 282.20,231.00 z" fill="#c7c9cc"></path><path d="M282.20,227.80 266.20,219.80 282.20,211.80 298.20,219.80 z" fill="#ebedf0"></path></g> <g data-week="21" data-day="5" class="day"><path d="M265.60,236.40 249.60,228.40 249.60,231.60 265.60,239.60 z" fill="#b0b1b4"></path><path d="M265.60,236.40 281.60,228.40 281.60,231.60 265.60,239.60 z" fill="#c7c9cc"></path><path d="M265.60,236.40 249.60,228.40 265.60,220.40 281.60,228.40 z" fill="#ebedf0"></path></g> <g data-week="21" data-day="6" class="day"><path d="M249.00,245.00 233.00,237.00 233.00,240.20 249.00,248.20 z" fill="#b0b1b4"></path><path d="M249.00,245.00 265.00,237.00 265.00,240.20 249.00,248.20 z" fill="#c7c9cc"></path><path d="M249.00,245.00 233.00,237.00 249.00,229.00 265.00,237.00 z" fill="#ebedf0"></path></g> <g data-week="22" data-day="0" class="day"><path d="M365.20,202.00 349.20,194.00 349.20,197.20 365.20,205.20 z" fill="#b0b1b4"></path><path d="M365.20,202.00 381.20,194.00 381.20,197.20 365.20,205.20 z" fill="#c7c9cc"></path><path d="M365.20,202.00 349.20,194.00 365.20,186.00 381.20,194.00 z" fill="#ebedf0"></path></g> <g data-week="22" data-day="1" class="day"><path d="M348.60,197.80 332.60,189.80 332.60,205.80 348.60,213.80 z" fill="#94ab68"></path><path d="M348.60,197.80 364.60,189.80 364.60,205.80 348.60,213.80 z" fill="#a8c176"></path><path d="M348.60,197.80 332.60,189.80 348.60,181.80 364.60,189.80 z" fill="#c6e48b"></path></g> <g data-week="22" data-day="2" class="day"><path d="M332.00,219.20 316.00,211.20 316.00,214.40 332.00,222.40 z" fill="#b0b1b4"></path><path d="M332.00,219.20 348.00,211.20 348.00,214.40 332.00,222.40 z" fill="#c7c9cc"></path><path d="M332.00,219.20 316.00,211.20 332.00,203.20 348.00,211.20 z" fill="#ebedf0"></path></g> <g data-week="22" data-day="3" class="day"><path d="M315.40,227.80 299.40,219.80 299.40,223.00 315.40,231.00 z" fill="#b0b1b4"></path><path d="M315.40,227.80 331.40,219.80 331.40,223.00 315.40,231.00 z" fill="#c7c9cc"></path><path d="M315.40,227.80 299.40,219.80 315.40,211.80 331.40,219.80 z" fill="#ebedf0"></path></g> <g data-week="22" data-day="4" class="day"><path d="M298.80,223.60 282.80,215.60 282.80,231.60 298.80,239.60 z" fill="#94ab68"></path><path d="M298.80,223.60 314.80,215.60 314.80,231.60 298.80,239.60 z" fill="#a8c176"></path><path d="M298.80,223.60 282.80,215.60 298.80,207.60 314.80,215.60 z" fill="#c6e48b"></path></g> <g data-week="22" data-day="5" class="day"><path d="M282.20,245.00 266.20,237.00 266.20,240.20 282.20,248.20 z" fill="#b0b1b4"></path><path d="M282.20,245.00 298.20,237.00 298.20,240.20 282.20,248.20 z" fill="#c7c9cc"></path><path d="M282.20,245.00 266.20,237.00 282.20,229.00 298.20,237.00 z" fill="#ebedf0"></path></g> <g data-week="22" data-day="6" class="day"><path d="M265.60,253.60 249.60,245.60 249.60,248.80 265.60,256.80 z" fill="#b0b1b4"></path><path d="M265.60,253.60 281.60,245.60 281.60,248.80 265.60,256.80 z" fill="#c7c9cc"></path><path d="M265.60,253.60 249.60,245.60 265.60,237.60 281.60,245.60 z" fill="#ebedf0"></path></g> <g data-week="23" data-day="0" class="day"><path d="M381.80,210.60 365.80,202.60 365.80,205.80 381.80,213.80 z" fill="#b0b1b4"></path><path d="M381.80,210.60 397.80,202.60 397.80,205.80 381.80,213.80 z" fill="#c7c9cc"></path><path d="M381.80,210.60 365.80,202.60 381.80,194.60 397.80,202.60 z" fill="#ebedf0"></path></g> <g data-week="23" data-day="1" class="day"><path d="M365.20,219.20 349.20,211.20 349.20,214.40 365.20,222.40 z" fill="#b0b1b4"></path><path d="M365.20,219.20 381.20,211.20 381.20,214.40 365.20,222.40 z" fill="#c7c9cc"></path><path d="M365.20,219.20 349.20,211.20 365.20,203.20 381.20,211.20 z" fill="#ebedf0"></path></g> <g data-week="23" data-day="2" class="day"><path d="M348.60,215.00 332.60,207.00 332.60,223.00 348.60,231.00 z" fill="#94ab68"></path><path d="M348.60,215.00 364.60,207.00 364.60,223.00 348.60,231.00 z" fill="#a8c176"></path><path d="M348.60,215.00 332.60,207.00 348.60,199.00 364.60,207.00 z" fill="#c6e48b"></path></g> <g data-week="23" data-day="3" class="day"><path d="M332.00,236.40 316.00,228.40 316.00,231.60 332.00,239.60 z" fill="#b0b1b4"></path><path d="M332.00,236.40 348.00,228.40 348.00,231.60 332.00,239.60 z" fill="#c7c9cc"></path><path d="M332.00,236.40 316.00,228.40 332.00,220.40 348.00,228.40 z" fill="#ebedf0"></path></g> <g data-week="23" data-day="4" class="day"><path d="M315.40,245.00 299.40,237.00 299.40,240.20 315.40,248.20 z" fill="#b0b1b4"></path><path d="M315.40,245.00 331.40,237.00 331.40,240.20 315.40,248.20 z" fill="#c7c9cc"></path><path d="M315.40,245.00 299.40,237.00 315.40,229.00 331.40,237.00 z" fill="#ebedf0"></path></g> <g data-week="23" data-day="5" class="day"><path d="M298.80,253.60 282.80,245.60 282.80,248.80 298.80,256.80 z" fill="#b0b1b4"></path><path d="M298.80,253.60 314.80,245.60 314.80,248.80 298.80,256.80 z" fill="#c7c9cc"></path><path d="M298.80,253.60 282.80,245.60 298.80,237.60 314.80,245.60 z" fill="#ebedf0"></path></g> <g data-week="23" data-day="6" class="day"><path d="M282.20,262.20 266.20,254.20 266.20,257.40 282.20,265.40 z" fill="#b0b1b4"></path><path d="M282.20,262.20 298.20,254.20 298.20,257.40 282.20,265.40 z" fill="#c7c9cc"></path><path d="M282.20,262.20 266.20,254.20 282.20,246.20 298.20,254.20 z" fill="#ebedf0"></path></g> <g data-week="24" data-day="0" class="day"><path d="M398.40,219.20 382.40,211.20 382.40,214.40 398.40,222.40 z" fill="#b0b1b4"></path><path d="M398.40,219.20 414.40,211.20 414.40,214.40 398.40,222.40 z" fill="#c7c9cc"></path><path d="M398.40,219.20 382.40,211.20 398.40,203.20 414.40,211.20 z" fill="#ebedf0"></path></g> <g data-week="24" data-day="1" class="day"><path d="M381.80,227.80 365.80,219.80 365.80,223.00 381.80,231.00 z" fill="#b0b1b4"></path><path d="M381.80,227.80 397.80,219.80 397.80,223.00 381.80,231.00 z" fill="#c7c9cc"></path><path d="M381.80,227.80 365.80,219.80 381.80,211.80 397.80,219.80 z" fill="#ebedf0"></path></g> <g data-week="24" data-day="2" class="day"><path d="M365.20,236.40 349.20,228.40 349.20,231.60 365.20,239.60 z" fill="#b0b1b4"></path><path d="M365.20,236.40 381.20,228.40 381.20,231.60 365.20,239.60 z" fill="#c7c9cc"></path><path d="M365.20,236.40 349.20,228.40 365.20,220.40 381.20,228.40 z" fill="#ebedf0"></path></g> <g data-week="24" data-day="3" class="day"><path d="M348.60,245.00 332.60,237.00 332.60,240.20 348.60,248.20 z" fill="#b0b1b4"></path><path d="M348.60,245.00 364.60,237.00 364.60,240.20 348.60,248.20 z" fill="#c7c9cc"></path><path d="M348.60,245.00 332.60,237.00 348.60,229.00 364.60,237.00 z" fill="#ebedf0"></path></g> <g data-week="24" data-day="4" class="day"><path d="M332.00,253.60 316.00,245.60 316.00,248.80 332.00,256.80 z" fill="#b0b1b4"></path><path d="M332.00,253.60 348.00,245.60 348.00,248.80 332.00,256.80 z" fill="#c7c9cc"></path><path d="M332.00,253.60 316.00,245.60 332.00,237.60 348.00,245.60 z" fill="#ebedf0"></path></g> <g data-week="24" data-day="5" class="day"><path d="M315.40,249.40 299.40,241.40 299.40,257.40 315.40,265.40 z" fill="#94ab68"></path><path d="M315.40,249.40 331.40,241.40 331.40,257.40 315.40,265.40 z" fill="#a8c176"></path><path d="M315.40,249.40 299.40,241.40 315.40,233.40 331.40,241.40 z" fill="#c6e48b"></path></g> <g data-week="24" data-day="6" class="day"><path d="M298.80,258.00 282.80,250.00 282.80,266.00 298.80,274.00 z" fill="#94ab68"></path><path d="M298.80,258.00 314.80,250.00 314.80,266.00 298.80,274.00 z" fill="#a8c176"></path><path d="M298.80,258.00 282.80,250.00 298.80,242.00 314.80,250.00 z" fill="#c6e48b"></path></g> <g data-week="25" data-day="0" class="day"><path d="M415.00,215.00 399.00,207.00 399.00,223.00 415.00,231.00 z" fill="#94ab68"></path><path d="M415.00,215.00 431.00,207.00 431.00,223.00 415.00,231.00 z" fill="#a8c176"></path><path d="M415.00,215.00 399.00,207.00 415.00,199.00 431.00,207.00 z" fill="#c6e48b"></path></g> <g data-week="25" data-day="1" class="day"><path d="M398.40,223.60 382.40,215.60 382.40,231.60 398.40,239.60 z" fill="#94ab68"></path><path d="M398.40,223.60 414.40,215.60 414.40,231.60 398.40,239.60 z" fill="#a8c176"></path><path d="M398.40,223.60 382.40,215.60 398.40,207.60 414.40,215.60 z" fill="#c6e48b"></path></g> <g data-week="25" data-day="2" class="day"><path d="M381.80,232.20 365.80,224.20 365.80,240.20 381.80,248.20 z" fill="#94ab68"></path><path d="M381.80,232.20 397.80,224.20 397.80,240.20 381.80,248.20 z" fill="#a8c176"></path><path d="M381.80,232.20 365.80,224.20 381.80,216.20 397.80,224.20 z" fill="#c6e48b"></path></g> <g data-week="25" data-day="3" class="day"><path d="M365.20,240.80 349.20,232.80 349.20,248.80 365.20,256.80 z" fill="#94ab68"></path><path d="M365.20,240.80 381.20,232.80 381.20,248.80 365.20,256.80 z" fill="#a8c176"></path><path d="M365.20,240.80 349.20,232.80 365.20,224.80 381.20,232.80 z" fill="#c6e48b"></path></g> <g data-week="25" data-day="4" class="day"><path d="M348.60,249.40 332.60,241.40 332.60,257.40 348.60,265.40 z" fill="#94ab68"></path><path d="M348.60,249.40 364.60,241.40 364.60,257.40 348.60,265.40 z" fill="#a8c176"></path><path d="M348.60,249.40 332.60,241.40 348.60,233.40 364.60,241.40 z" fill="#c6e48b"></path></g> <g data-week="25" data-day="5" class="day"><path d="M332.00,258.00 316.00,250.00 316.00,266.00 332.00,274.00 z" fill="#94ab68"></path><path d="M332.00,258.00 348.00,250.00 348.00,266.00 332.00,274.00 z" fill="#a8c176"></path><path d="M332.00,258.00 316.00,250.00 332.00,242.00 348.00,250.00 z" fill="#c6e48b"></path></g> <g data-week="25" data-day="6" class="day"><path d="M315.40,266.60 299.40,258.60 299.40,274.60 315.40,282.60 z" fill="#94ab68"></path><path d="M315.40,266.60 331.40,258.60 331.40,274.60 315.40,282.60 z" fill="#a8c176"></path><path d="M315.40,266.60 299.40,258.60 315.40,250.60 331.40,258.60 z" fill="#c6e48b"></path></g> <g data-week="26" data-day="0" class="day"><path d="M431.60,223.60 415.60,215.60 415.60,231.60 431.60,239.60 z" fill="#94ab68"></path><path d="M431.60,223.60 447.60,215.60 447.60,231.60 431.60,239.60 z" fill="#a8c176"></path><path d="M431.60,223.60 415.60,215.60 431.60,207.60 447.60,215.60 z" fill="#c6e48b"></path></g> <g data-week="26" data-day="1" class="day"><path d="M415.00,232.20 399.00,224.20 399.00,240.20 415.00,248.20 z" fill="#94ab68"></path><path d="M415.00,232.20 431.00,224.20 431.00,240.20 415.00,248.20 z" fill="#a8c176"></path><path d="M415.00,232.20 399.00,224.20 415.00,216.20 431.00,224.20 z" fill="#c6e48b"></path></g> <g data-week="26" data-day="2" class="day"><path d="M398.40,240.80 382.40,232.80 382.40,248.80 398.40,256.80 z" fill="#94ab68"></path><path d="M398.40,240.80 414.40,232.80 414.40,248.80 398.40,256.80 z" fill="#a8c176"></path><path d="M398.40,240.80 382.40,232.80 398.40,224.80 414.40,232.80 z" fill="#c6e48b"></path></g> <g data-week="26" data-day="3" class="day"><path d="M381.80,249.40 365.80,241.40 365.80,257.40 381.80,265.40 z" fill="#94ab68"></path><path d="M381.80,249.40 397.80,241.40 397.80,257.40 381.80,265.40 z" fill="#a8c176"></path><path d="M381.80,249.40 365.80,241.40 381.80,233.40 397.80,241.40 z" fill="#c6e48b"></path></g> <g data-week="26" data-day="4" class="day"><path d="M365.20,258.00 349.20,250.00 349.20,266.00 365.20,274.00 z" fill="#94ab68"></path><path d="M365.20,258.00 381.20,250.00 381.20,266.00 365.20,274.00 z" fill="#a8c176"></path><path d="M365.20,258.00 349.20,250.00 365.20,242.00 381.20,250.00 z" fill="#c6e48b"></path></g> <g data-week="26" data-day="5" class="day"><path d="M348.60,266.60 332.60,258.60 332.60,274.60 348.60,282.60 z" fill="#94ab68"></path><path d="M348.60,266.60 364.60,258.60 364.60,274.60 348.60,282.60 z" fill="#a8c176"></path><path d="M348.60,266.60 332.60,258.60 348.60,250.60 364.60,258.60 z" fill="#c6e48b"></path></g> <g data-week="26" data-day="6" class="day"><path d="M332.00,275.20 316.00,267.20 316.00,283.20 332.00,291.20 z" fill="#5c9653"></path><path d="M332.00,275.20 348.00,267.20 348.00,283.20 332.00,291.20 z" fill="#68aa5e"></path><path d="M332.00,275.20 316.00,267.20 332.00,259.20 348.00,267.20 z" fill="#7bc96f"></path></g> <g data-week="27" data-day="0" class="day"><path d="M448.20,232.20 432.20,224.20 432.20,240.20 448.20,248.20 z" fill="#94ab68"></path><path d="M448.20,232.20 464.20,224.20 464.20,240.20 448.20,248.20 z" fill="#a8c176"></path><path d="M448.20,232.20 432.20,224.20 448.20,216.20 464.20,224.20 z" fill="#c6e48b"></path></g> <g data-week="27" data-day="1" class="day"><path d="M431.60,240.80 415.60,232.80 415.60,248.80 431.60,256.80 z" fill="#94ab68"></path><path d="M431.60,240.80 447.60,232.80 447.60,248.80 431.60,256.80 z" fill="#a8c176"></path><path d="M431.60,240.80 415.60,232.80 431.60,224.80 447.60,232.80 z" fill="#c6e48b"></path></g> <g data-week="27" data-day="2" class="day"><path d="M415.00,249.40 399.00,241.40 399.00,257.40 415.00,265.40 z" fill="#5c9653"></path><path d="M415.00,249.40 431.00,241.40 431.00,257.40 415.00,265.40 z" fill="#68aa5e"></path><path d="M415.00,249.40 399.00,241.40 415.00,233.40 431.00,241.40 z" fill="#7bc96f"></path></g> <g data-week="27" data-day="3" class="day"><path d="M398.40,258.00 382.40,250.00 382.40,266.00 398.40,274.00 z" fill="#94ab68"></path><path d="M398.40,258.00 414.40,250.00 414.40,266.00 398.40,274.00 z" fill="#a8c176"></path><path d="M398.40,258.00 382.40,250.00 398.40,242.00 414.40,250.00 z" fill="#c6e48b"></path></g> <g data-week="27" data-day="4" class="day"><path d="M381.80,266.60 365.80,258.60 365.80,274.60 381.80,282.60 z" fill="#5c9653"></path><path d="M381.80,266.60 397.80,258.60 397.80,274.60 381.80,282.60 z" fill="#68aa5e"></path><path d="M381.80,266.60 365.80,258.60 381.80,250.60 397.80,258.60 z" fill="#7bc96f"></path></g> <g data-week="27" data-day="5" class="day"><path d="M365.20,275.20 349.20,267.20 349.20,283.20 365.20,291.20 z" fill="#94ab68"></path><path d="M365.20,275.20 381.20,267.20 381.20,283.20 365.20,291.20 z" fill="#a8c176"></path><path d="M365.20,275.20 349.20,267.20 365.20,259.20 381.20,267.20 z" fill="#c6e48b"></path></g> <g data-week="27" data-day="6" class="day"><path d="M348.60,283.80 332.60,275.80 332.60,291.80 348.60,299.80 z" fill="#94ab68"></path><path d="M348.60,283.80 364.60,275.80 364.60,291.80 348.60,299.80 z" fill="#a8c176"></path><path d="M348.60,283.80 332.60,275.80 348.60,267.80 364.60,275.80 z" fill="#c6e48b"></path></g> <g data-week="28" data-day="0" class="day"><path d="M464.80,240.80 448.80,232.80 448.80,248.80 464.80,256.80 z" fill="#94ab68"></path><path d="M464.80,240.80 480.80,232.80 480.80,248.80 464.80,256.80 z" fill="#a8c176"></path><path d="M464.80,240.80 448.80,232.80 464.80,224.80 480.80,232.80 z" fill="#c6e48b"></path></g> <g data-week="28" data-day="1" class="day"><path d="M448.20,249.40 432.20,241.40 432.20,257.40 448.20,265.40 z" fill="#94ab68"></path><path d="M448.20,249.40 464.20,241.40 464.20,257.40 448.20,265.40 z" fill="#a8c176"></path><path d="M448.20,249.40 432.20,241.40 448.20,233.40 464.20,241.40 z" fill="#c6e48b"></path></g> <g data-week="28" data-day="2" class="day"><path d="M431.60,258.00 415.60,250.00 415.60,266.00 431.60,274.00 z" fill="#5c9653"></path><path d="M431.60,258.00 447.60,250.00 447.60,266.00 431.60,274.00 z" fill="#68aa5e"></path><path d="M431.60,258.00 415.60,250.00 431.60,242.00 447.60,250.00 z" fill="#7bc96f"></path></g> <g data-week="28" data-day="3" class="day"><path d="M415.00,266.60 399.00,258.60 399.00,274.60 415.00,282.60 z" fill="#5c9653"></path><path d="M415.00,266.60 431.00,258.60 431.00,274.60 415.00,282.60 z" fill="#68aa5e"></path><path d="M415.00,266.60 399.00,258.60 415.00,250.60 431.00,258.60 z" fill="#7bc96f"></path></g> <g data-week="28" data-day="4" class="day"><path d="M398.40,288.00 382.40,280.00 382.40,283.20 398.40,291.20 z" fill="#b0b1b4"></path><path d="M398.40,288.00 414.40,280.00 414.40,283.20 398.40,291.20 z" fill="#c7c9cc"></path><path d="M398.40,288.00 382.40,280.00 398.40,272.00 414.40,280.00 z" fill="#ebedf0"></path></g> <g data-week="28" data-day="5" class="day"><path d="M381.80,283.80 365.80,275.80 365.80,291.80 381.80,299.80 z" fill="#94ab68"></path><path d="M381.80,283.80 397.80,275.80 397.80,291.80 381.80,299.80 z" fill="#a8c176"></path><path d="M381.80,283.80 365.80,275.80 381.80,267.80 397.80,275.80 z" fill="#c6e48b"></path></g> <g data-week="28" data-day="6" class="day"><path d="M365.20,292.40 349.20,284.40 349.20,300.40 365.20,308.40 z" fill="#94ab68"></path><path d="M365.20,292.40 381.20,284.40 381.20,300.40 365.20,308.40 z" fill="#a8c176"></path><path d="M365.20,292.40 349.20,284.40 365.20,276.40 381.20,284.40 z" fill="#c6e48b"></path></g> <g data-week="29" data-day="0" class="day"><path d="M481.40,262.20 465.40,254.20 465.40,257.40 481.40,265.40 z" fill="#b0b1b4"></path><path d="M481.40,262.20 497.40,254.20 497.40,257.40 481.40,265.40 z" fill="#c7c9cc"></path><path d="M481.40,262.20 465.40,254.20 481.40,246.20 497.40,254.20 z" fill="#ebedf0"></path></g> <g data-week="29" data-day="1" class="day"><path d="M464.80,258.00 448.80,250.00 448.80,266.00 464.80,274.00 z" fill="#94ab68"></path><path d="M464.80,258.00 480.80,250.00 480.80,266.00 464.80,274.00 z" fill="#a8c176"></path><path d="M464.80,258.00 448.80,250.00 464.80,242.00 480.80,250.00 z" fill="#c6e48b"></path></g> <g data-week="29" data-day="2" class="day"><path d="M448.20,266.60 432.20,258.60 432.20,274.60 448.20,282.60 z" fill="#94ab68"></path><path d="M448.20,266.60 464.20,258.60 464.20,274.60 448.20,282.60 z" fill="#a8c176"></path><path d="M448.20,266.60 432.20,258.60 448.20,250.60 464.20,258.60 z" fill="#c6e48b"></path></g> </g> </svg>